<svg width="186" height="186" viewBox="0 0 186 186" fill="none" xmlns="http://www.w3.org/2000/svg">
<path d="M169.259 98.8141L180.485 99.917L180.357 101.223L170.278 100.232L169.716 105.949L168.57 105.836L169.259 98.8141Z" fill="#FFFFFC"/>
<path d="M167.352 110.205C167.603 109.004 168.15 108.127 168.996 107.573C169.851 107.021 170.885 106.871 172.096 107.123C172.879 107.287 173.536 107.587 174.066 108.024C174.606 108.463 174.982 108.988 175.193 109.599C175.412 110.222 175.446 110.893 175.296 111.614C175.081 112.648 174.578 113.388 173.788 113.833C173.009 114.281 172.039 114.384 170.88 114.143L170.394 114.042L171.588 108.309C170.713 108.17 169.997 108.283 169.442 108.646C168.897 109.012 168.54 109.603 168.371 110.417C168.275 110.877 168.252 111.329 168.3 111.775C168.36 112.224 168.512 112.669 168.757 113.113L167.773 113.365C167.521 112.953 167.357 112.462 167.28 111.89C167.213 111.32 167.237 110.759 167.352 110.205ZM174.35 111.45C174.5 110.729 174.394 110.113 174.032 109.602C173.67 109.091 173.131 108.723 172.415 108.497L171.453 113.118C172.232 113.248 172.875 113.169 173.381 112.882C173.886 112.606 174.208 112.128 174.35 111.45Z" fill="#FFFFFC"/>
<path d="M165.173 117.809C165.445 116.933 165.879 116.347 166.473 116.051C167.078 115.759 167.818 115.748 168.694 116.021L172.591 117.231L173.041 115.779L174.004 116.078L173.553 117.529L175.83 118.236L175.446 119.474L173.169 118.767L172.438 121.12L171.475 120.821L172.206 118.468L168.432 117.296C167.851 117.116 167.37 117.101 166.989 117.25C166.617 117.403 166.346 117.754 166.175 118.304C166.125 118.467 166.095 118.637 166.085 118.812C166.075 118.988 166.07 119.148 166.069 119.293L165.056 119.213C165.025 119.059 165.019 118.844 165.037 118.571C165.055 118.297 165.101 118.043 165.173 117.809Z" fill="#FFFFFC"/>
<path d="M171.18 124.338L171.844 123.965C171.986 124.274 172.138 124.512 172.301 124.68C172.469 124.862 172.654 125.004 172.854 125.106L173.132 124.407L174.649 125.009L174.047 126.526L172.976 126.101C172.569 125.94 172.218 125.726 171.922 125.459C171.627 125.193 171.379 124.819 171.18 124.338Z" fill="#FFFFFC"/>
<path d="M160.728 128.083C160.999 127.539 161.332 127.061 161.727 126.65C162.123 126.24 162.537 125.946 162.971 125.768L163.602 126.547C163.154 126.753 162.761 127.028 162.423 127.372C162.089 127.73 161.816 128.124 161.602 128.554C161.33 129.098 161.226 129.559 161.289 129.935C161.351 130.312 161.555 130.586 161.898 130.757C162.166 130.891 162.421 130.904 162.664 130.799C162.917 130.699 163.183 130.474 163.464 130.125L164.4 128.965C165.247 127.909 166.153 127.621 167.118 128.102C167.748 128.416 168.13 128.916 168.265 129.603C168.395 130.299 168.258 131.053 167.853 131.864C167.616 132.342 167.313 132.757 166.947 133.111C166.585 133.479 166.189 133.735 165.76 133.878L165.136 133.085C165.532 132.937 165.889 132.709 166.208 132.404C166.532 132.112 166.785 131.785 166.965 131.422C167.232 130.887 167.329 130.429 167.257 130.048C167.184 129.666 166.977 129.39 166.633 129.219C166.098 128.952 165.578 129.135 165.074 129.765L164.153 130.933C163.715 131.477 163.269 131.833 162.816 132.001C162.373 132.173 161.903 132.136 161.406 131.889C160.767 131.57 160.387 131.065 160.266 130.374C160.155 129.687 160.309 128.923 160.728 128.083Z" fill="#FFFFFC"/>
<path d="M152.964 140.144C153.699 139.162 154.566 138.599 155.566 138.455C156.575 138.317 157.575 138.619 158.566 139.36C159.207 139.839 159.674 140.389 159.97 141.009C160.273 141.636 160.391 142.27 160.324 142.913C160.259 143.57 160.006 144.193 159.565 144.782C158.932 145.628 158.164 146.086 157.259 146.155C156.363 146.231 155.441 145.914 154.493 145.205L154.096 144.908L157.604 140.218C156.869 139.722 156.174 139.522 155.517 139.616C154.868 139.717 154.295 140.101 153.797 140.767C153.515 141.143 153.303 141.543 153.158 141.968C153.022 142.399 152.971 142.867 153.006 143.373L152.008 143.185C151.954 142.706 152.013 142.19 152.185 141.64C152.365 141.095 152.625 140.597 152.964 140.144ZM158.777 144.233C159.218 143.644 159.382 143.041 159.271 142.424C159.159 141.808 158.826 141.246 158.273 140.739L155.446 144.519C156.097 144.966 156.713 145.167 157.293 145.121C157.867 145.084 158.362 144.788 158.777 144.233Z" fill="#FFFFFC"/>
<path d="M150.711 143.13L151.449 148.232L156.272 148.569L155.226 149.693L151.592 149.393L152.14 153.008L151.105 154.12L150.424 149.333L145.282 148.963L146.329 147.838L150.268 148.139L149.665 144.255L150.711 143.13Z" fill="#FFFFFC"/>
<path d="M142.378 147.506L149.324 155.587L148.366 156.411L147.458 155.355C147.593 155.872 147.574 156.381 147.4 156.882C147.225 157.399 146.903 157.858 146.433 158.262C145.908 158.714 145.343 158.981 144.739 159.064C144.134 159.162 143.528 159.071 142.922 158.791C142.314 158.525 141.739 158.077 141.196 157.446C140.661 156.824 140.304 156.188 140.126 155.539C139.947 154.905 139.948 154.293 140.129 153.701C140.302 153.117 140.651 152.598 141.177 152.146C141.63 151.757 142.121 151.51 142.651 151.407C143.181 151.303 143.683 151.356 144.159 151.566L141.395 148.351L142.378 147.506ZM142.061 152.758C141.511 153.231 141.237 153.804 141.239 154.477C141.248 155.158 141.566 155.863 142.191 156.591C142.824 157.327 143.473 157.747 144.139 157.85C144.804 157.953 145.412 157.768 145.962 157.296C146.512 156.823 146.786 156.25 146.784 155.576C146.782 154.903 146.464 154.198 145.831 153.462C145.206 152.734 144.557 152.315 143.884 152.203C143.219 152.1 142.611 152.285 142.061 152.758Z" fill="#FFFFFC"/>
<path d="M135.243 156.53C135.888 156.075 136.508 155.919 137.104 156.06C137.697 156.216 138.248 156.656 138.759 157.379L143.775 164.493L142.716 165.239L137.755 158.205C137.097 157.272 136.398 157.067 135.657 157.589C135.439 157.743 135.261 157.908 135.124 158.083L134.523 157.175C134.75 156.924 134.99 156.709 135.243 156.53Z" fill="#FFFFFC"/>
<path d="M129.573 159.954C130.229 159.576 130.88 159.392 131.526 159.402C132.172 159.412 132.777 159.599 133.344 159.962C133.906 160.34 134.392 160.885 134.801 161.597C135.211 162.309 135.435 162.998 135.474 163.665C135.509 164.346 135.369 164.968 135.053 165.532C134.738 166.095 134.251 166.565 133.595 166.943C132.948 167.316 132.301 167.497 131.656 167.487C131.001 167.482 130.392 167.291 129.83 166.913C129.264 166.55 128.776 166.012 128.367 165.3C127.957 164.588 127.735 163.892 127.699 163.21C127.66 162.544 127.803 161.926 128.128 161.357C128.444 160.794 128.926 160.326 129.573 159.954ZM130.092 160.855C129.463 161.217 129.087 161.729 128.963 162.391C128.845 163.062 129.025 163.814 129.504 164.646C129.988 165.487 130.547 166.02 131.182 166.246C131.816 166.472 132.448 166.404 133.076 166.042C133.714 165.675 134.095 165.16 134.219 164.498C134.333 163.842 134.148 163.093 133.664 162.251C133.185 161.419 132.631 160.883 132 160.643C131.366 160.417 130.729 160.488 130.092 160.855Z" fill="#FFFFFC"/>
<path d="M125.109 162.359L128.325 169.439L127.174 169.961L126.599 168.694C126.608 169.721 126.045 170.545 124.91 171.166L124.507 171.401L123.956 170.421L124.66 169.997C125.303 169.634 125.716 169.189 125.898 168.661C126.085 168.143 126.034 167.568 125.748 166.937L123.915 162.901L125.109 162.359Z" fill="#FFFFFC"/>
<path d="M115.844 165.828C117.004 165.43 118.038 165.453 118.946 165.897C119.857 166.351 120.514 167.163 120.916 168.334C121.175 169.09 121.252 169.808 121.147 170.487C121.045 171.176 120.785 171.767 120.368 172.26C119.944 172.766 119.384 173.139 118.688 173.378C117.689 173.721 116.796 173.666 116.01 173.214C115.227 172.772 114.643 171.992 114.259 170.872L114.098 170.402L119.637 168.502C119.309 167.678 118.847 167.121 118.251 166.829C117.658 166.548 116.968 166.542 116.181 166.812C115.737 166.964 115.336 167.175 114.978 167.445C114.622 167.725 114.317 168.083 114.061 168.521L113.341 167.803C113.567 167.376 113.906 166.984 114.358 166.626C114.814 166.277 115.309 166.012 115.844 165.828ZM118.346 172.48C119.042 172.241 119.518 171.836 119.772 171.263C120.027 170.691 120.069 170.04 119.897 169.309L115.432 170.841C115.719 171.577 116.115 172.09 116.62 172.379C117.115 172.671 117.69 172.705 118.346 172.48Z" fill="#FFFFFC"/>
<path d="M102.398 168.799C103.304 168.655 104.022 168.783 104.55 169.185C105.08 169.598 105.418 170.257 105.562 171.163L106.204 175.192L107.705 174.953L107.864 175.948L106.363 176.187L106.738 178.542L105.458 178.746L105.083 176.391L102.649 176.779L102.491 175.784L104.924 175.396L104.302 171.493C104.206 170.893 104.007 170.455 103.704 170.179C103.402 169.914 102.967 169.826 102.398 169.917C102.23 169.944 102.065 169.992 101.903 170.061C101.741 170.13 101.595 170.196 101.465 170.26L101.087 169.316C101.213 169.22 101.402 169.12 101.655 169.015C101.908 168.91 102.156 168.838 102.398 168.799Z" fill="#FFFFFC"/>
<path d="M99.1788 169.27L99.8369 180.531L98.5431 180.607L98.264 175.831C98.0358 176.314 97.6996 176.686 97.2554 176.947C96.8012 177.22 96.2866 177.373 95.7116 177.406C93.8694 177.514 92.8886 176.546 92.7691 174.501L92.4863 169.661L93.7801 169.586L94.0582 174.346C94.1005 175.07 94.2751 175.588 94.5819 175.902C94.8787 176.226 95.3358 176.37 95.9535 176.334C96.6669 176.293 97.2235 176.036 97.6233 175.564C98.0131 175.103 98.1865 174.505 98.1436 173.77L97.8851 169.346L99.1788 169.27Z" fill="#FFFFFC"/>
<path d="M86.8436 169.167C88.0686 169.231 89.019 169.639 89.695 170.391C90.3704 171.153 90.6754 172.152 90.6101 173.387C90.5679 174.186 90.371 174.881 90.0193 175.471C89.6671 176.072 89.2054 176.523 88.634 176.824C88.0515 177.135 87.3927 177.271 86.6577 177.232C85.6032 177.176 84.7957 176.792 84.2352 176.079C83.6742 175.376 83.4249 174.434 83.4874 173.251L83.5135 172.756L89.3614 173.065C89.3655 172.179 89.1456 171.489 88.7017 170.995C88.2572 170.512 87.6196 170.249 86.7887 170.205C86.32 170.18 85.869 170.226 85.4356 170.342C85.0017 170.469 84.5842 170.687 84.1833 170.997L83.7841 170.062C84.153 169.751 84.6142 169.513 85.1676 169.35C85.7204 169.198 86.2791 169.137 86.8436 169.167ZM86.6764 176.272C87.4114 176.311 88.004 176.112 88.4543 175.677C88.9046 175.241 89.1867 174.653 89.3007 173.911L84.5872 173.662C84.5775 174.452 84.7529 175.075 85.1133 175.532C85.463 175.989 85.9841 176.235 86.6764 176.272Z" fill="#FFFFFC"/>
<path d="M73.1431 166.848C73.9007 167.028 74.5164 167.344 74.9901 167.796C75.4614 168.259 75.7773 168.821 75.9379 169.484C76.0857 170.155 76.0648 170.89 75.8751 171.689C75.5895 172.893 75.0385 173.76 74.2221 174.29C73.4033 174.83 72.423 174.965 71.2814 174.694C70.8144 174.583 70.3722 174.391 69.955 174.116C69.5377 173.842 69.2143 173.518 68.9847 173.146L69.6386 172.331C69.8706 172.693 70.1522 172.985 70.4835 173.206C70.8043 173.424 71.1256 173.572 71.4473 173.648C72.2361 173.835 72.9024 173.73 73.4461 173.333C73.9873 172.946 74.3675 172.291 74.5867 171.367C74.801 170.464 74.7581 169.698 74.4582 169.067C74.1558 168.448 73.6102 168.044 72.8214 167.857C72.4997 167.781 72.1464 167.768 71.7615 167.819C71.3662 167.868 70.9824 168.007 70.61 168.237L70.3921 167.215C70.7645 166.985 71.2051 166.838 71.714 166.772C72.2101 166.714 72.6864 166.74 73.1431 166.848Z" fill="#FFFFFC"/>
<path d="M68.8955 165.72L66.4128 173.089L65.215 172.685L65.6594 171.366C64.9655 172.123 63.9916 172.341 62.7379 172.02L62.2828 171.917L62.5494 170.825L63.3534 170.994C64.0713 171.169 64.6769 171.125 65.1702 170.864C65.6601 170.612 66.0158 170.158 66.2371 169.501L67.6521 165.301L68.8955 165.72Z" fill="#FFFFFC"/>
<path d="M59.7561 161.93C60.8758 162.431 61.6158 163.154 61.9762 164.098C62.3322 165.052 62.2575 166.094 61.7521 167.223C61.4253 167.954 60.9917 168.531 60.4512 168.955C59.9064 169.389 59.3133 169.644 58.672 169.719C58.0165 169.799 57.3529 169.689 56.6811 169.389C55.7172 168.957 55.1021 168.308 54.8358 167.441C54.565 166.584 54.6715 165.615 55.1552 164.534L55.3578 164.081L60.7029 166.473C61.0256 165.648 61.0686 164.925 60.832 164.305C60.5909 163.695 60.0907 163.219 59.3313 162.88C58.9029 162.688 58.4656 162.568 58.0196 162.52C57.5691 162.482 57.1011 162.536 56.6155 162.681L56.5791 161.665C57.0355 161.507 57.5512 161.452 58.1262 161.499C58.6968 161.556 59.2401 161.699 59.7561 161.93ZM57.0441 168.5C57.7159 168.8 58.3402 168.828 58.917 168.584C59.4938 168.34 59.9687 167.892 60.3419 167.241L56.0337 165.313C55.7404 166.046 55.6798 166.691 55.8516 167.247C56.0137 167.799 56.4112 168.216 57.0441 168.5Z" fill="#FFFFFC"/>
<path d="M53.4495 158.531C53.9102 158.8 54.2737 159.129 54.5401 159.519C54.7919 159.913 54.9324 160.328 54.9615 160.765C54.9907 161.202 54.8924 161.614 54.6666 162.001C54.3818 162.489 54.0316 162.804 53.6162 162.944C53.1916 163.079 52.6542 163.037 52.0039 162.819C51.339 162.604 50.4998 162.2 49.4863 161.609L49.0441 161.351L48.7941 161.78C48.4609 162.351 48.3414 162.831 48.4359 163.219C48.5157 163.612 48.8136 163.958 49.3295 164.259C49.7349 164.496 50.1614 164.664 50.609 164.765C51.0513 164.875 51.5457 164.916 52.0924 164.889L52.0037 165.93C51.5084 165.975 50.9691 165.926 50.3855 165.783C49.7928 165.635 49.2661 165.426 48.8054 165.157C47.9394 164.652 47.4227 164.067 47.2553 163.401C47.0788 162.73 47.2512 161.948 47.7726 161.054L50.2398 156.825L51.2901 157.438L50.6128 158.599C51.019 158.305 51.4736 158.15 51.9765 158.135C52.4702 158.114 52.9612 158.246 53.4495 158.531ZM52.778 159.269C52.2252 158.947 51.6636 158.872 51.0931 159.046C50.5172 159.228 50.0573 159.614 49.7133 160.204L49.4714 160.619L49.8998 160.869C50.6461 161.304 51.2572 161.611 51.7333 161.79C52.1947 161.973 52.564 162.028 52.8412 161.955C53.1038 161.886 53.3211 161.704 53.4931 161.409C53.7135 161.031 53.7645 160.647 53.6463 160.257C53.5189 159.862 53.2295 159.532 52.778 159.269Z" fill="#FFFFFC"/>
<path d="M46.0182 153.519C46.7627 154.055 47.1809 154.652 47.2727 155.31C47.3582 155.976 47.133 156.681 46.5971 157.426L44.2133 160.737L45.4469 161.625L44.858 162.443L43.6244 161.555L42.2315 163.49L41.1797 162.733L42.5726 160.798L40.5729 159.358L41.1618 158.54L43.1615 159.98L45.4705 156.772C45.8257 156.279 45.9929 155.828 45.9721 155.418C45.9451 155.018 45.6979 154.649 45.2304 154.313C45.0919 154.213 44.9409 154.131 44.7775 154.065C44.614 154 44.4636 153.945 44.3261 153.898L44.7239 152.962C44.8801 152.983 45.0851 153.045 45.3389 153.149C45.5927 153.253 45.8191 153.376 46.0182 153.519Z" fill="#FFFFFC"/>
<path d="M37.17 159.001L36.2313 160.114L35.0082 159.083L35.9469 157.97L37.17 159.001ZM43.309 151.474L38.2958 157.418L37.3051 156.583L42.3183 150.638L43.309 151.474Z" fill="#FFFFFC"/>
<path d="M37.8403 146.398L34.6797 154.25L33.6875 153.251L36.3449 146.981L30.0344 149.573L29.0985 148.631L36.9834 145.535L37.8403 146.398Z" fill="#FFFFFC"/>
<path d="M31.7648 139.168C32.531 140.126 32.8583 141.107 32.7466 142.112C32.6266 143.123 32.0834 144.015 31.1172 144.788C30.4924 145.288 29.8427 145.603 29.168 145.732C28.485 145.869 27.8412 145.824 27.2365 145.597C26.6168 145.369 26.0771 144.968 25.6174 144.393C24.9578 143.568 24.7079 142.709 24.8679 141.817C25.0196 140.93 25.5577 140.117 26.4823 139.378L26.8697 139.068L30.5275 143.641C31.1923 143.055 31.5613 142.432 31.6346 141.772C31.6997 141.119 31.4723 140.468 30.9526 139.818C30.6594 139.451 30.3255 139.145 29.9507 138.898C29.5675 138.658 29.1269 138.492 28.6289 138.398L29.0612 137.479C29.5393 137.547 30.0232 137.734 30.513 138.039C30.9944 138.35 31.4116 138.727 31.7648 139.168ZM26.3471 143.768C26.8068 144.343 27.349 144.654 27.9737 144.7C28.5984 144.747 29.2256 144.566 29.8553 144.158L26.907 140.472C26.3106 140.99 25.9616 141.536 25.8599 142.109C25.7516 142.674 25.914 143.227 26.3471 143.768Z" fill="#FFFFFC"/>
<path d="M24.9055 128.675L19.2934 134.787L18.6756 133.576L23.2533 128.781L16.648 129.599L16.1465 128.615L20.7167 123.771L14.1188 124.638L13.5302 123.484L21.7804 122.546L22.34 123.644L17.9618 128.336L24.3386 127.564L24.9055 128.675Z" fill="#FFFFFC"/>
<path d="M20.121 117.186C20.3772 117.899 20.4434 118.572 20.3198 119.206C20.1962 119.84 19.9057 120.403 19.4482 120.896C18.977 121.383 18.3549 121.765 17.582 122.043C16.8091 122.321 16.091 122.42 15.4279 122.341C14.7511 122.256 14.1633 122.008 13.6646 121.598C13.1658 121.187 12.7883 120.626 12.5322 119.913C12.2797 119.211 12.2152 118.542 12.3388 117.909C12.4588 117.265 12.7544 116.699 13.2256 116.213C13.6831 115.72 14.2983 115.334 15.0712 115.056C15.8442 114.779 16.569 114.682 17.2458 114.768C17.909 114.847 18.4917 115.097 18.9941 115.517C19.4929 115.927 19.8685 116.483 20.121 117.186ZM19.1423 117.538C18.897 116.855 18.4595 116.395 17.8298 116.156C17.19 115.921 16.4184 115.966 15.515 116.291C14.6015 116.619 13.9778 117.076 13.6439 117.661C13.3099 118.245 13.2656 118.879 13.5109 119.562C13.7598 120.254 14.1992 120.72 14.8289 120.958C15.455 121.186 16.2248 121.137 17.1383 120.808C18.0417 120.484 18.6672 120.032 19.0148 119.454C19.3487 118.869 19.3912 118.23 19.1423 117.538Z" fill="#FFFFFC"/>
<path d="M18.5405 112.368L11.0046 114.286L10.6929 113.061L12.042 112.718C11.0297 112.546 10.3179 111.847 9.9066 110.62L9.74566 110.182L10.8074 109.812L11.1017 110.58C11.3452 111.277 11.7107 111.762 12.1982 112.034C12.6754 112.309 13.2499 112.361 13.9218 112.19L18.217 111.097L18.5405 112.368Z" fill="#FFFFFC"/>
<path d="M17.1535 106.097L6.01251 107.862L5.80966 106.582L12.6839 105.493L12.6789 105.461L8.70199 102.447L8.44404 100.819L12.753 104.089L16.0716 99.2701L16.3296 100.898L13.3426 105.356L13.3476 105.388L16.9506 104.817L17.1535 106.097Z" fill="#FFFFFC"/>
<path d="M16.2226 98.6214L14.5949 98.7401L14.4762 97.1125L16.1039 96.9937L16.2226 98.6214Z" fill="#FFFFFC"/>
<path d="M16.1896 87.187L4.95732 86.1507L5.07785 84.8443L15.163 85.7747L15.6907 80.055L16.8379 80.1609L16.1896 87.187Z" fill="#FFFFFC"/>
<path d="M18.0285 75.7848C17.7856 76.9872 17.2431 77.8678 16.4011 78.4268C15.5486 78.9837 14.516 79.1397 13.3031 78.8947C12.519 78.7363 11.8606 78.44 11.328 78.006C10.7849 77.5698 10.4063 77.0471 10.192 76.438C9.96935 75.8162 9.93091 75.1447 10.0766 74.4232C10.2858 73.3881 10.784 72.6454 11.5715 72.1951C12.3484 71.7427 13.3172 71.6337 14.4777 71.8681L14.9639 71.9663L13.8043 77.7064C14.6806 77.8399 15.3952 77.7231 15.9482 77.356C16.4907 76.9867 16.8443 76.3944 17.0091 75.5788C17.102 75.1188 17.1228 74.6659 17.0713 74.2203C17.0095 73.7725 16.8545 73.3277 16.6064 72.8858L17.589 72.6272C17.8435 73.0377 18.0109 73.5286 18.0914 74.0999C18.1614 74.669 18.1404 75.2306 18.0285 75.7848ZM11.024 74.582C10.8782 75.3034 10.9879 75.9186 11.353 76.4277C11.7181 76.9367 12.2592 77.3017 12.9763 77.5228L13.9109 72.8962C13.1309 72.7713 12.4885 72.8537 11.9838 73.1435C11.4812 73.4229 11.1613 73.9024 11.024 74.582Z" fill="#FFFFFC"/>
<path d="M20.1627 68.1684C19.8959 69.0461 19.4661 69.6345 18.8735 69.9337C18.2706 70.2298 17.5303 70.2444 16.6527 69.9776L12.7491 68.7907L12.3069 70.245L11.3425 69.9518L11.7847 68.4975L9.50379 67.804L9.8808 66.564L12.1617 67.2575L12.8785 64.9001L13.8429 65.1933L13.1261 67.5508L16.9072 68.7004C17.4889 68.8773 17.9701 68.8898 18.3507 68.7379C18.7211 68.583 18.9901 68.23 19.1577 67.6789C19.2073 67.5156 19.2366 67.3461 19.2454 67.1704C19.2542 66.9947 19.2584 66.8343 19.2579 66.6892L20.2722 66.7635C20.3033 66.9179 20.3106 67.132 20.2943 67.4057C20.278 67.6795 20.2341 67.9337 20.1627 68.1684Z" fill="#FFFFFC"/>
<path d="M14.1181 61.6747L13.4558 62.0518C13.3125 61.744 13.1589 61.5067 12.995 61.3397C12.8251 61.159 12.6396 61.018 12.4387 60.9167L12.1655 61.6173L10.645 61.0244L11.2379 59.5039L12.3112 59.9224C12.7186 60.0813 13.0711 60.2932 13.3685 60.558C13.666 60.8229 13.9158 61.1951 14.1181 61.6747Z" fill="#FFFFFC"/>
<path d="M24.5471 57.8681C24.2793 58.4139 23.9489 58.8934 23.5561 59.3066C23.1632 59.7198 22.7504 60.0163 22.3177 60.196L21.6822 59.4208C22.129 59.2123 22.5205 58.9351 22.8566 58.5891C23.1878 58.2289 23.4592 57.8333 23.6706 57.4024C23.9385 56.8565 24.04 56.3954 23.9751 56.019C23.9103 55.6427 23.7055 55.3699 23.3608 55.2007C23.0927 55.0692 22.8373 55.0568 22.5949 55.1635C22.3428 55.2656 22.0773 55.4918 21.7985 55.8421L20.8698 57.0083C20.0286 58.0688 19.1245 58.3618 18.1573 57.8872C17.5253 57.5771 17.1399 57.0791 17.0012 56.3932C16.8672 55.6977 16.9999 54.943 17.3993 54.1291C17.6342 53.6503 17.934 53.233 18.2987 52.8773C18.6585 52.5072 19.0525 52.2491 19.4807 52.1028L20.1092 52.8923C19.7144 53.0432 19.3583 53.2724 19.041 53.5801C18.7188 53.8735 18.4684 54.2022 18.2899 54.5661C18.0267 55.1023 17.9324 55.561 18.0068 55.942C18.0812 56.3231 18.2907 56.5982 18.6355 56.7674C19.1717 57.0305 19.6903 56.8454 20.1913 56.2119L21.1055 55.0387C21.5403 54.4916 21.9837 54.1329 22.4356 53.9626C22.8779 53.7875 23.3481 53.8222 23.846 54.0665C24.4876 54.3813 24.8706 54.8841 24.9951 55.5749C25.1099 56.261 24.9606 57.0254 24.5471 57.8681Z" fill="#FFFFFC"/>
<path d="M32.2398 45.7611C31.5109 46.7477 30.6467 47.316 29.6472 47.4661C28.6391 47.6099 27.6375 47.3141 26.6424 46.5788C25.9989 46.1034 25.5278 45.5564 25.229 44.9377C24.9215 44.3127 24.7997 43.6789 24.8633 43.0363C24.9247 42.3788 25.1741 41.754 25.6115 41.1621C26.239 40.3127 27.0048 39.8507 27.9088 39.776C28.8043 39.6949 29.7281 40.0061 30.6804 40.7097L31.0793 41.0045L27.5994 45.7143C28.3368 46.2061 29.0337 46.4027 29.6901 46.3042C30.3379 46.1993 30.909 45.8122 31.4034 45.1431C31.6823 44.7656 31.8928 44.3641 32.0348 43.9385C32.1682 43.5066 32.2161 43.038 32.1783 42.5326L33.178 42.7143C33.2348 43.1939 33.1788 43.7095 33.0099 44.2611C32.8325 44.8064 32.5758 45.3064 32.2398 45.7611ZM26.4026 41.7068C25.9653 42.2988 25.8043 42.9026 25.9196 43.5183C26.035 44.134 26.3707 44.6938 26.9269 45.1975L29.7317 41.4013C29.0779 40.958 28.461 40.7608 27.881 40.8098C27.3074 40.8502 26.8146 41.1492 26.4026 41.7068Z" fill="#FFFFFC"/>
<path d="M34.4749 42.7618L33.7072 37.6642L28.8818 37.3562L29.9216 36.2257L33.5568 36.5042L32.9871 32.8931L34.0161 31.7744L34.7254 36.5573L39.8691 36.8974L38.8293 38.0279L34.8884 37.7508L35.5147 41.6313L34.4749 42.7618Z" fill="#FFFFFC"/>
<path d="M42.7814 38.3369L35.7874 30.2974L36.741 29.4678L37.6546 30.518C37.5166 30.0018 37.5332 29.4926 37.7042 28.9904C37.8762 28.4731 38.1957 28.0114 38.6624 27.6054C39.1855 27.1503 39.7487 26.8795 40.352 26.7929C40.9564 26.6913 41.5627 26.7788 42.171 27.0555C42.7804 27.3171 43.3581 27.7618 43.9041 28.3895C44.4432 29.0092 44.8036 29.6429 44.9854 30.2906C45.1682 30.9233 45.171 31.5359 44.9937 32.1285C44.8244 32.714 44.4783 33.2343 43.9552 33.6893C43.5045 34.0814 43.0146 34.3308 42.4855 34.4377C41.9564 34.5446 41.4533 34.4944 40.9763 34.2874L43.7592 37.4863L42.7814 38.3369ZM43.0674 33.0832C43.6146 32.6072 43.8852 32.0325 43.8791 31.3591C43.866 30.6778 43.5444 29.9749 42.9143 29.2506C42.2772 28.5183 41.6257 28.1025 40.9597 28.0033C40.2937 27.904 39.687 28.0925 39.1398 28.5685C38.5926 29.0446 38.322 29.6193 38.3281 30.2926C38.3342 30.9659 38.6558 31.6688 39.2929 32.4011C39.923 33.1254 40.5745 33.5412 41.2475 33.6485C41.9135 33.7477 42.5201 33.5593 43.0674 33.0832Z" fill="#FFFFFC"/>
<path d="M49.8634 29.2703C49.221 29.729 48.6016 29.8895 48.0052 29.7518C47.4113 29.5992 46.8571 29.1627 46.3426 28.4422L41.2843 21.3588L42.339 20.6057L47.3415 27.6109C48.0048 28.5397 48.7053 28.7407 49.4432 28.2138C49.6602 28.0588 49.8369 27.8933 49.9733 27.7172L50.5795 28.6212C50.3538 28.8742 50.1151 29.0905 49.8634 29.2703Z" fill="#FFFFFC"/>
<path d="M55.5129 25.8132C54.8587 26.1948 54.2088 26.3826 53.5631 26.3765C52.9173 26.3704 52.3104 26.1873 51.7422 25.8272C51.1778 25.4526 50.6887 24.9105 50.2748 24.2011C49.8609 23.4917 49.6325 22.8037 49.5895 22.1373C49.5503 21.4562 49.6869 20.8331 49.9994 20.268C50.3118 19.7029 50.7951 19.2295 51.4493 18.8479C52.0942 18.4716 52.7395 18.2866 53.3853 18.2927C54.0402 18.2934 54.6498 18.4811 55.2142 18.8557C55.7824 19.2158 56.2734 19.7506 56.6873 20.46C57.1012 21.1694 57.3277 21.8647 57.3669 22.5457C57.41 23.2121 57.2707 23.8306 56.949 24.4011C56.6365 24.9662 56.1578 25.4369 55.5129 25.8132ZM54.9888 24.9149C55.6153 24.5494 55.9884 24.0353 56.1082 23.3727C56.2225 22.7009 56.0378 21.9503 55.5541 21.1211C55.0649 20.2827 54.5025 19.7526 53.8667 19.5307C53.231 19.3089 52.5999 19.3807 51.9733 19.7462C51.3376 20.1171 50.9599 20.6338 50.8402 21.2965C50.7296 21.9537 50.9189 22.7015 51.4081 23.5399C51.8918 24.3691 52.4497 24.902 53.0816 25.1384C53.7173 25.3603 54.3531 25.2858 54.9888 24.9149Z" fill="#FFFFFC"/>
<path d="M59.9622 23.3818L56.7044 16.3211L57.8521 15.7916L58.4353 17.0555C58.4198 16.0289 58.9779 15.2017 60.1096 14.5738L60.5108 14.3358L61.0672 15.3125L60.3665 15.7416C59.725 16.108 59.3148 16.5557 59.136 17.0847C58.9527 17.6039 59.0062 18.1783 59.2967 18.8079L61.1535 22.8321L59.9622 23.3818Z" fill="#FFFFFC"/>
<path d="M69.2072 19.8577C68.0493 20.2626 67.0151 20.2458 66.1045 19.8072C65.1905 19.3584 64.5292 18.5501 64.1207 17.3822C63.8566 16.627 63.7752 15.9097 63.8765 15.2301C63.9743 14.5405 64.2304 13.948 64.6448 13.4528C65.0657 12.944 65.6236 12.568 66.3183 12.3251C67.3151 11.9764 68.2081 12.0257 68.9973 12.4729C69.783 12.91 70.3713 13.6873 70.7622 14.8049L70.926 15.2731L65.3983 17.2065C65.7309 18.0281 66.1962 18.5829 66.7941 18.871C67.3886 19.149 68.0785 19.1507 68.8638 18.876C69.3068 18.721 69.7068 18.5077 70.0638 18.2359C70.4172 17.9541 70.7206 17.5937 70.9739 17.1548L71.6979 17.8678C71.4748 18.2961 71.1382 18.6907 70.6881 19.0515C70.2344 19.4023 69.7408 19.671 69.2072 19.8577ZM66.6654 13.2207C65.9707 13.4636 65.4977 13.872 65.2464 14.4459C64.9951 15.0197 64.9574 15.6713 65.1335 16.4008L69.5888 14.8424C69.298 14.1079 68.8992 13.5977 68.3923 13.3116C67.8955 13.0221 67.3199 12.9918 66.6654 13.2207Z" fill="#FFFFFC"/>
<path d="M82.6342 16.8072C81.7292 16.9569 81.0112 16.8325 80.4804 16.4338C79.9478 16.0245 79.6066 15.3674 79.4569 14.4624L78.7909 10.4371L77.2913 10.6852L77.1267 9.69073L78.6263 9.44262L78.2372 7.0906L79.5158 6.87905L79.905 9.23108L82.3359 8.82888L82.5005 9.82336L80.0695 10.2256L80.7146 14.1246C80.8138 14.7244 81.0158 15.1613 81.3206 15.4352C81.6237 15.6986 82.0594 15.7833 82.6276 15.6893C82.796 15.6614 82.9609 15.6125 83.1223 15.5426C83.2837 15.4726 83.4294 15.4053 83.5592 15.3405L83.9421 16.2827C83.8175 16.379 83.6289 16.4805 83.3762 16.5871C83.1236 16.6938 82.8763 16.7672 82.6342 16.8072Z" fill="#FFFFFC"/>
<path d="M85.8514 16.317L85.1266 5.06026L86.4199 4.97699L86.7273 9.75111C86.9526 9.26629 87.2866 8.89206 87.7293 8.62841C88.1819 8.35343 88.6956 8.19743 89.2704 8.16042C91.1119 8.04186 92.0984 9.00446 92.23 11.0482L92.5415 15.8862L91.2482 15.9695L90.9419 11.2113C90.8953 10.4875 90.7176 9.96984 90.409 9.65836C90.1103 9.33555 89.6522 9.19402 89.0349 9.23377C88.3217 9.27969 87.7666 9.5399 87.3696 10.0144C86.9825 10.4775 86.8127 11.0764 86.8599 11.8108L87.1447 16.2337L85.8514 16.317Z" fill="#FFFFFC"/>
<path d="M98.1869 16.3474C96.9616 16.29 96.0088 15.8875 95.3284 15.1402C94.6485 14.3822 94.3375 13.3852 94.3955 12.1492C94.433 11.3501 94.6258 10.6543 94.9739 10.062C95.3225 9.45899 95.7816 9.00534 96.3512 8.70102C96.9319 8.38655 97.5898 8.24656 98.325 8.28104C99.3799 8.33052 100.19 8.71021 100.754 9.42011C101.32 10.1194 101.574 11.0603 101.519 12.243L101.496 12.7385L95.6461 12.4641C95.6472 13.3505 95.8712 14.0391 96.318 14.5299C96.7654 15.01 97.4046 15.2696 98.2357 15.3086C98.7045 15.3306 99.1552 15.2823 99.5879 15.1638C100.021 15.0346 100.437 14.8138 100.836 14.5015L101.241 15.4335C100.874 15.7473 100.414 15.9874 99.8619 16.1537C99.31 16.3093 98.7516 16.3739 98.1869 16.3474ZM98.312 9.24149C97.5768 9.207 96.9854 9.40885 96.5377 9.84702C96.09 10.2852 95.8114 10.8755 95.7018 11.6178L100.417 11.8389C100.422 11.049 100.243 10.4266 99.8795 9.97173C99.5271 9.51739 99.0046 9.27397 98.312 9.24149Z" fill="#FFFFFC"/>
<path d="M111.901 18.5849C111.142 18.4096 110.525 18.0973 110.048 17.6479C109.574 17.188 109.255 16.6271 109.091 15.9651C108.939 15.2951 108.955 14.5599 109.14 13.7597C109.419 12.5541 109.965 11.684 110.778 11.1493C111.593 10.6042 112.573 10.4638 113.716 10.7279C114.184 10.8359 114.627 11.0259 115.046 11.2978C115.465 11.5698 115.79 11.8912 116.022 12.2623L115.373 13.0812C115.139 12.7206 114.855 12.4307 114.523 12.2115C114.201 11.9948 113.879 11.8492 113.556 11.7748C112.767 11.5923 112.101 11.7013 111.56 12.1017C111.021 12.4917 110.644 13.1492 110.431 14.0742C110.222 14.9784 110.269 15.7447 110.573 16.3732C110.879 16.9913 111.427 17.3916 112.217 17.574C112.539 17.6485 112.892 17.6589 113.277 17.6055C113.672 17.5544 114.055 17.413 114.426 17.1812L114.65 18.2018C114.279 18.4336 113.839 18.5838 113.33 18.6524C112.835 18.7131 112.358 18.6906 111.901 18.5849Z" fill="#FFFFFC"/>
<path d="M116.155 19.6878L118.594 12.3042L119.794 12.7006L119.357 14.0224C120.047 13.2616 121.019 13.038 122.275 13.3517L122.731 13.4516L122.47 14.5452L121.666 14.3804C120.947 14.2104 120.341 14.2575 119.849 14.522C119.361 14.7763 119.008 15.2326 118.791 15.891L117.401 20.0993L116.155 19.6878Z" fill="#FFFFFC"/>
<path d="M125.316 23.4231C124.194 22.9287 123.449 22.2104 123.083 21.2683C122.722 20.3165 122.79 19.2743 123.289 18.142C123.611 17.4098 124.042 16.8301 124.58 16.4026C125.122 15.9654 125.713 15.7073 126.354 15.6282C127.009 15.5437 127.673 15.6498 128.347 15.9465C129.313 16.3721 129.932 17.0177 130.204 17.8832C130.48 18.739 130.379 19.7086 129.902 20.7922L129.702 21.2461L124.343 18.8857C124.025 19.7132 123.986 20.4362 124.226 21.0549C124.471 21.6639 124.974 22.136 125.736 22.4714C126.165 22.6605 126.603 22.7777 127.049 22.8227C127.5 22.858 127.968 22.8018 128.452 22.6539L128.495 23.6692C128.039 23.8299 127.524 23.8885 126.949 23.8449C126.378 23.7916 125.834 23.651 125.316 23.4231ZM127.989 16.8379C127.316 16.5413 126.691 16.5168 126.116 16.7646C125.541 17.0124 125.068 17.4629 124.699 18.1161L129.019 20.0186C129.308 19.2834 129.364 18.6382 129.189 18.0832C129.024 17.5325 128.624 17.1174 127.989 16.8379Z" fill="#FFFFFC"/>
<path d="M131.643 26.7852C131.181 26.5191 130.815 26.1919 130.547 25.8034C130.293 25.411 130.15 24.9965 130.118 24.5598C130.086 24.1231 130.182 23.7106 130.405 23.3223C130.687 22.8323 131.036 22.5158 131.45 22.3729C131.874 22.2353 132.412 22.2739 133.063 22.4889C133.73 22.7 134.571 23.0982 135.588 23.6834L136.032 23.9388L136.279 23.5089C136.609 22.9357 136.726 22.4552 136.629 22.0672C136.547 21.6753 136.247 21.3304 135.729 21.0325C135.322 20.7984 134.895 20.6324 134.447 20.5344C134.004 20.4272 133.509 20.3887 132.963 20.4187L133.045 19.3771C133.54 19.3297 134.08 19.3756 134.664 19.515C135.258 19.6597 135.786 19.8651 136.248 20.1311C137.117 20.6312 137.637 21.2136 137.808 21.8783C137.989 22.5483 137.821 23.3317 137.305 24.2285L134.863 28.472L133.809 27.8654L134.479 26.7006C134.075 26.997 133.621 27.1544 133.119 27.1727C132.625 27.1963 132.133 27.0671 131.643 26.7852ZM132.31 26.043C132.865 26.3622 133.427 26.4334 133.997 26.2565C134.571 26.0704 135.029 25.6815 135.369 25.0898L135.609 24.6738L135.179 24.4264C134.43 23.9954 133.817 23.6919 133.34 23.5158C132.878 23.3358 132.508 23.2831 132.231 23.3576C131.969 23.4283 131.753 23.6115 131.583 23.9074C131.364 24.2864 131.316 24.6706 131.436 25.0599C131.566 25.4546 131.857 25.7823 132.31 26.043Z" fill="#FFFFFC"/>
<path d="M139.104 31.7524C138.357 31.2209 137.935 30.6266 137.839 29.9697C137.75 29.304 137.971 28.5973 138.502 27.8497L140.866 24.5244L139.628 23.6437L140.212 22.8221L141.451 23.7029L142.832 21.7599L143.888 22.5108L142.507 24.4538L144.515 25.8816L143.931 26.7031L141.923 25.2754L139.633 28.4963C139.28 28.9918 139.116 29.4442 139.139 29.8533C139.169 30.2538 139.418 30.6209 139.887 30.9546C140.027 31.0535 140.178 31.135 140.342 31.1991C140.506 31.2633 140.656 31.3181 140.794 31.3637L140.402 32.302C140.246 32.2825 140.04 32.2216 139.786 32.1192C139.531 32.0168 139.304 31.8946 139.104 31.7524Z" fill="#FFFFFC"/>
<path d="M147.92 26.2182L148.852 25.0996L150.081 26.1239L149.149 27.2425L147.92 26.2182ZM141.825 33.7818L146.803 27.808L147.799 28.6376L142.821 34.6115L141.825 33.7818Z" fill="#FFFFFC"/>
<path d="M147.324 38.8253L150.438 30.9544L151.436 31.9475L148.816 38.2332L155.111 35.6038L156.052 36.5405L148.186 39.683L147.324 38.8253Z" fill="#FFFFFC"/>
<path d="M153.442 46.0188C152.671 45.0654 152.338 44.0861 152.443 43.081C152.557 42.0691 153.095 41.1739 154.057 40.3953C154.679 39.8919 155.326 39.5733 156 39.4394C156.682 39.2988 157.327 39.34 157.933 39.563C158.554 39.7876 159.096 40.1859 159.559 40.7579C160.223 41.5787 160.478 42.4359 160.324 43.3297C160.177 44.2169 159.644 45.0329 158.724 45.778L158.338 46.0901L154.653 41.5388C153.992 42.1291 153.627 42.7542 153.557 43.4143C153.496 44.0677 153.727 44.7177 154.251 45.3643C154.546 45.7291 154.882 46.0337 155.258 46.278C155.643 46.5157 156.084 46.6797 156.583 46.77L156.156 47.6921C155.678 47.6266 155.193 47.4429 154.701 47.1409C154.218 46.8322 153.798 46.4581 153.442 46.0188ZM158.833 41.3869C158.37 40.8149 157.826 40.5074 157.201 40.4644C156.576 40.4214 155.95 40.6058 155.322 41.0176L158.292 44.686C158.886 44.1644 159.232 43.6168 159.33 43.0432C159.435 42.4779 159.269 41.9258 158.833 41.3869Z" fill="#FFFFFC"/>
<path d="M160.364 56.4709L165.939 50.3257L166.564 51.5337L162.015 56.3552L168.616 55.4985L169.123 56.4791L164.581 61.3505L171.174 60.4439L171.769 61.595L163.525 62.5816L162.959 61.4874L167.309 56.7688L160.937 57.5794L160.364 56.4709Z" fill="#FFFFFC"/>
<path d="M165.216 67.9316C164.956 67.2205 164.886 66.5476 165.005 65.9131C165.125 65.2785 165.412 64.7134 165.867 64.2175C166.335 63.7281 166.955 63.3421 167.726 63.0598C168.498 62.7774 169.215 62.6738 169.879 62.749C170.556 62.8304 171.145 63.0748 171.646 63.4819C172.148 63.8891 172.528 64.4483 172.789 65.1595C173.045 65.8607 173.114 66.5285 172.994 67.163C172.878 67.8076 172.586 68.3746 172.117 68.8641C171.663 69.3599 171.05 69.749 170.278 70.0313C169.507 70.3137 168.783 70.4141 168.106 70.3327C167.442 70.2575 166.858 70.0114 166.353 69.5942C165.852 69.187 165.473 68.6328 165.216 67.9316ZM166.193 67.5741C166.442 68.2552 166.882 68.7131 167.513 68.9478C168.155 69.1788 168.926 69.1293 169.827 68.7993C170.739 68.4656 171.36 68.0054 171.69 67.4187C172.021 66.8321 172.061 66.1981 171.812 65.517C171.559 64.8259 171.117 64.363 170.486 64.1283C169.858 63.9036 169.089 63.9582 168.177 64.2918C167.276 64.6219 166.653 65.077 166.309 65.6574C165.978 66.2441 165.94 66.883 166.193 67.5741Z" fill="#FFFFFC"/>
<path d="M166.825 72.7398L174.349 70.7776L174.668 72.0007L173.321 72.352C174.335 72.5177 175.051 73.2128 175.469 74.4375L175.633 74.8744L174.573 75.2499L174.274 74.4845C174.027 73.7885 173.658 73.3058 173.169 73.0365C172.69 72.7645 172.116 72.716 171.445 72.891L167.156 74.0093L166.825 72.7398Z" fill="#FFFFFC"/>
<path d="M168.249 79.0031L179.379 77.1716L179.59 78.4504L172.722 79.5805L172.727 79.612L176.722 82.6031L176.99 84.2292L172.661 80.985L169.371 85.8234L169.104 84.1972L172.064 79.7211L172.059 79.6896L168.46 80.2819L168.249 79.0031Z" fill="#FFFFFC"/>
<path d="M169.225 86.4729L170.852 86.3445L170.98 87.9714L169.353 88.0998L169.225 86.4729Z" fill="#FFFFFC"/>
<path d="M92.959 127.106L92.959 58M71 102.821C76.5783 102.821 92.959 107.745 92.959 127.213C92.959 107.745 109.34 102.821 114.918 102.821" stroke="#FFFFFC" stroke-width="2"/>
</svg>
