<svg width="170" height="170" viewBox="0 0 170 170" fill="none" xmlns="http://www.w3.org/2000/svg">
<path d="M158.817 89.7484L166.36 90.3712L166.288 91.2486L159.515 90.6894L159.197 94.5306L158.427 94.467L158.817 89.7484Z" fill="#020E10"/>
<path d="M157.585 98.701C157.727 97.8904 158.077 97.2906 158.632 96.9015C159.195 96.5138 159.885 96.3919 160.703 96.5361C161.231 96.6293 161.678 96.817 162.042 97.0993C162.414 97.3828 162.677 97.7271 162.83 98.1322C162.99 98.5455 163.027 98.9954 162.941 99.4818C162.818 100.18 162.497 100.686 161.976 101.001C161.462 101.318 160.814 101.407 160.032 101.269L159.704 101.211L160.386 97.3415C159.796 97.2666 159.319 97.3569 158.954 97.6124C158.596 97.8691 158.369 98.2723 158.272 98.8221C158.217 99.1323 158.211 99.4364 158.253 99.7345C158.302 100.034 158.413 100.33 158.587 100.622L157.932 100.812C157.754 100.541 157.634 100.214 157.57 99.8323C157.514 99.4517 157.519 99.0746 157.585 98.701ZM162.303 99.3911C162.389 98.9047 162.305 98.4938 162.052 98.1585C161.798 97.8231 161.429 97.5872 160.945 97.4509L160.395 100.57C160.92 100.641 161.35 100.575 161.683 100.372C162.016 100.176 162.223 99.8493 162.303 99.3911Z" fill="#020E10"/>
<path d="M156.086 105.105C156.242 104.51 156.515 104.104 156.905 103.889C157.302 103.674 157.798 103.646 158.393 103.802L161.041 104.497L161.3 103.511L161.954 103.682L161.695 104.669L163.243 105.075L163.022 105.916L161.474 105.51L161.055 107.109L160.4 106.937L160.82 105.338L158.255 104.665C157.861 104.561 157.538 104.565 157.286 104.677C157.042 104.79 156.871 105.034 156.773 105.408C156.744 105.519 156.728 105.633 156.727 105.751C156.726 105.869 156.727 105.977 156.731 106.074L156.049 106.05C156.024 105.948 156.014 105.804 156.018 105.62C156.021 105.436 156.044 105.265 156.086 105.105Z" fill="#020E10"/>
<path d="M160.076 110.219L160.507 109.945C160.613 110.146 160.724 110.3 160.839 110.407C160.959 110.522 161.088 110.611 161.226 110.672L161.386 110.193L162.425 110.54L162.078 111.579L161.345 111.334C161.066 111.241 160.823 111.111 160.615 110.943C160.407 110.775 160.227 110.534 160.076 110.219Z" fill="#020E10"/>
<path d="M152.964 113.931C153.121 113.555 153.322 113.22 153.568 112.927C153.815 112.634 154.079 112.419 154.361 112.281L154.819 112.774C154.528 112.932 154.277 113.133 154.066 113.379C153.859 113.634 153.694 113.91 153.57 114.207C153.413 114.584 153.364 114.897 153.423 115.146C153.482 115.396 153.63 115.57 153.868 115.669C154.053 115.746 154.225 115.744 154.383 115.662C154.547 115.584 154.716 115.421 154.888 115.175L155.462 114.356C155.982 113.611 156.575 113.378 157.243 113.656C157.679 113.838 157.957 114.155 158.078 114.609C158.197 115.069 158.139 115.58 157.905 116.142C157.767 116.472 157.583 116.764 157.354 117.017C157.128 117.28 156.875 117.469 156.594 117.584L156.141 117.081C156.399 116.964 156.628 116.796 156.828 116.577C157.032 116.367 157.186 116.137 157.29 115.886C157.445 115.516 157.489 115.205 157.423 114.952C157.358 114.7 157.206 114.525 156.968 114.426C156.598 114.271 156.259 114.417 155.949 114.862L155.385 115.685C155.116 116.069 154.834 116.328 154.539 116.46C154.249 116.596 153.933 116.592 153.59 116.449C153.147 116.264 152.87 115.943 152.758 115.486C152.653 115.031 152.722 114.513 152.964 113.931Z" fill="#020E10"/>
<path d="M147.523 124.342C147.953 123.64 148.497 123.21 149.157 123.052C149.822 122.897 150.509 123.036 151.217 123.47C151.675 123.75 152.022 124.088 152.257 124.485C152.499 124.885 152.618 125.301 152.612 125.734C152.61 126.178 152.479 126.61 152.221 127.031C151.851 127.635 151.366 127.989 150.766 128.091C150.172 128.197 149.537 128.043 148.859 127.628L148.575 127.454L150.628 124.103C150.106 123.818 149.629 123.727 149.196 123.831C148.769 123.939 148.409 124.231 148.118 124.707C147.953 124.975 147.836 125.256 147.766 125.549C147.702 125.845 147.697 126.161 147.752 126.497L147.073 126.434C147.007 126.116 147.014 125.768 147.095 125.39C147.182 125.015 147.325 124.666 147.523 124.342ZM151.661 126.713C151.919 126.292 151.991 125.879 151.878 125.474C151.765 125.069 151.508 124.714 151.107 124.41L149.453 127.111C149.916 127.369 150.34 127.465 150.725 127.398C151.106 127.338 151.418 127.11 151.661 126.713Z" fill="#020E10"/>
<path d="M145.523 127.569L146.384 130.92L149.626 130.795L149.009 131.621L146.563 131.684L147.19 134.055L146.58 134.872L145.78 131.728L142.323 131.853L142.94 131.027L145.589 130.943L144.906 128.395L145.523 127.569Z" fill="#020E10"/>
<path d="M139.485 132.149L144.78 136.954L144.21 137.582L143.518 136.954C143.651 137.287 143.68 137.628 143.606 137.976C143.532 138.335 143.355 138.667 143.076 138.975C142.764 139.319 142.41 139.544 142.015 139.649C141.62 139.765 141.209 139.754 140.782 139.618C140.355 139.492 139.935 139.241 139.522 138.866C139.114 138.495 138.823 138.102 138.651 137.684C138.479 137.277 138.429 136.869 138.501 136.46C138.567 136.057 138.757 135.683 139.069 135.338C139.339 135.041 139.646 134.837 139.99 134.724C140.334 134.611 140.673 134.604 141.007 134.705L138.901 132.793L139.485 132.149ZM139.709 135.672C139.382 136.032 139.247 136.437 139.304 136.885C139.367 137.338 139.636 137.781 140.113 138.214C140.596 138.652 141.063 138.877 141.514 138.891C141.966 138.904 142.355 138.731 142.682 138.371C143.009 138.01 143.144 137.606 143.087 137.158C143.03 136.71 142.76 136.267 142.278 135.829C141.801 135.396 141.334 135.17 140.877 135.152C140.425 135.138 140.036 135.312 139.709 135.672Z" fill="#020E10"/>
<path d="M134.586 139.768C134.973 139.406 135.371 139.245 135.78 139.284C136.188 139.334 136.595 139.575 137.001 140.009L140.989 144.277L140.353 144.87L136.41 140.65C135.887 140.091 135.403 140.019 134.958 140.434C134.828 140.556 134.725 140.682 134.649 140.811L134.167 140.263C134.294 140.075 134.434 139.91 134.586 139.768Z" fill="#020E10"/>
<path d="M130.461 143.23C130.859 142.914 131.272 142.726 131.702 142.668C132.131 142.609 132.552 142.672 132.964 142.857C133.375 143.051 133.752 143.363 134.095 143.795C134.439 144.226 134.657 144.66 134.75 145.099C134.842 145.547 134.811 145.974 134.658 146.38C134.505 146.785 134.23 147.146 133.833 147.463C133.441 147.775 133.03 147.96 132.601 148.018C132.166 148.081 131.743 148.016 131.332 147.821C130.92 147.637 130.542 147.329 130.199 146.898C129.855 146.467 129.638 146.027 129.546 145.579C129.453 145.141 129.486 144.717 129.644 144.307C129.797 143.901 130.07 143.542 130.461 143.23ZM130.896 143.776C130.516 144.079 130.317 144.457 130.302 144.908C130.291 145.365 130.486 145.846 130.887 146.35C131.293 146.859 131.718 147.157 132.162 147.243C132.605 147.329 133.017 147.22 133.398 146.917C133.784 146.609 133.985 146.23 134.001 145.778C134.011 145.331 133.813 144.853 133.407 144.343C133.005 143.839 132.584 143.539 132.141 143.443C131.698 143.357 131.283 143.468 130.896 143.776Z" fill="#020E10"/>
<path d="M126.748 146.067L129.653 150.401L128.948 150.873L128.428 150.098C128.547 150.776 128.264 151.383 127.581 151.919L127.34 152.119L126.868 151.531L127.287 151.172C127.674 150.862 127.898 150.522 127.961 150.152C128.027 149.789 127.931 149.414 127.672 149.027L126.017 146.557L126.748 146.067Z" fill="#020E10"/>
<path d="M120.155 149.981C120.874 149.581 121.559 149.473 122.212 149.659C122.867 149.851 123.397 150.309 123.801 151.035C124.063 151.504 124.199 151.969 124.209 152.43C124.224 152.897 124.122 153.318 123.905 153.693C123.685 154.078 123.36 154.39 122.928 154.63C122.309 154.975 121.713 155.045 121.14 154.84C120.57 154.641 120.092 154.194 119.706 153.5L119.544 153.209L122.977 151.297C122.663 150.792 122.291 150.479 121.863 150.357C121.438 150.241 120.982 150.319 120.494 150.591C120.219 150.744 119.979 150.931 119.774 151.152C119.573 151.379 119.414 151.652 119.296 151.971L118.736 151.582C118.834 151.274 119.012 150.974 119.268 150.684C119.528 150.4 119.823 150.166 120.155 149.981ZM122.596 154.078C123.027 153.838 123.293 153.513 123.394 153.105C123.494 152.697 123.444 152.262 123.244 151.8L120.477 153.341C120.754 153.793 121.076 154.085 121.444 154.216C121.805 154.35 122.189 154.304 122.596 154.078Z" fill="#020E10"/>
<path d="M109.716 154.636C110.292 154.419 110.78 154.407 111.182 154.6C111.586 154.8 111.897 155.188 112.113 155.764L113.078 158.326L114.033 157.966L114.271 158.599L113.317 158.959L113.88 160.456L113.066 160.762L112.503 159.265L110.955 159.848L110.717 159.215L112.264 158.632L111.33 156.151C111.186 155.769 110.996 155.508 110.76 155.367C110.526 155.234 110.228 155.235 109.866 155.371C109.759 155.411 109.657 155.465 109.56 155.532C109.463 155.599 109.376 155.663 109.299 155.722L108.923 155.152C108.993 155.073 109.104 154.981 109.256 154.878C109.408 154.775 109.562 154.694 109.716 154.636Z" fill="#020E10"/>
<path d="M106.696 155.744L108.748 163.03L107.911 163.266L107.041 160.176C106.961 160.525 106.794 160.818 106.54 161.053C106.282 161.297 105.967 161.471 105.595 161.576C104.403 161.911 103.621 161.418 103.248 160.095L102.366 156.964L103.203 156.728L104.07 159.808C104.202 160.276 104.391 160.591 104.638 160.752C104.879 160.922 105.199 160.951 105.599 160.838C106.06 160.708 106.388 160.46 106.582 160.093C106.771 159.735 106.799 159.318 106.665 158.843L105.859 155.98L106.696 155.744Z" fill="#020E10"/>
<path d="M97.2784 157.86C98.0883 157.714 98.772 157.834 99.3293 158.22C99.8879 158.613 100.241 159.219 100.389 160.036C100.485 160.564 100.463 161.048 100.325 161.487C100.188 161.934 99.9557 162.3 99.629 162.585C99.2965 162.878 98.8873 163.068 98.4014 163.156C97.7041 163.282 97.1175 163.156 96.6414 162.777C96.1666 162.404 95.8584 161.827 95.7168 161.046L95.6575 160.718L99.524 160.018C99.39 159.438 99.1399 159.022 98.7739 158.768C98.4092 158.521 97.9521 158.448 97.4028 158.547C97.0929 158.603 96.8054 158.703 96.5403 158.845C96.2764 158.995 96.0375 159.202 95.8235 159.466L95.4186 158.917C95.6115 158.657 95.876 158.431 96.2122 158.239C96.5497 158.054 96.9051 157.928 97.2784 157.86ZM98.2654 162.526C98.7514 162.438 99.1078 162.217 99.3346 161.863C99.5615 161.509 99.6549 161.082 99.6149 160.58L96.4984 161.144C96.614 161.661 96.8247 162.042 97.1305 162.284C97.4293 162.528 97.8076 162.609 98.2654 162.526Z" fill="#020E10"/>
<path d="M88.0539 158.97L88.0793 164.187L87.2311 164.191L87.2269 163.311C87.0709 163.627 86.8538 163.868 86.5755 164.034C86.2971 164.207 85.9719 164.294 85.5997 164.296C84.7838 164.3 84.2596 163.948 84.0271 163.241C83.8712 163.571 83.6398 163.83 83.333 164.017C83.0262 164.212 82.6723 164.31 82.2715 164.312C81.112 164.318 80.5289 163.634 80.5222 162.259L80.5064 159.006L81.3761 159.002L81.3917 162.212C81.394 162.692 81.4816 163.042 81.6544 163.263C81.8202 163.491 82.0963 163.604 82.4828 163.603C82.9051 163.6 83.2407 163.449 83.4898 163.147C83.7388 162.845 83.8622 162.443 83.8597 161.942L83.8454 158.99L84.715 158.986L84.7306 162.196C84.7329 162.675 84.8205 163.026 84.9934 163.247C85.1591 163.475 85.4352 163.588 85.8217 163.586C86.2512 163.584 86.5904 163.432 86.8395 163.13C87.0814 162.829 87.2011 162.427 87.1987 161.926L87.1843 158.974L88.0539 158.97Z" fill="#020E10"/>
<path d="M76.6343 158.417C77.1397 158.469 77.566 158.625 77.9133 158.884C78.2605 159.144 78.5166 159.483 78.6816 159.904C78.8387 160.33 78.8887 160.817 78.8317 161.366C78.7746 161.914 78.6257 162.377 78.3849 162.755C78.1362 163.139 77.8153 163.422 77.4221 163.604C77.0289 163.787 76.5796 163.851 76.0742 163.799C75.5758 163.747 75.1531 163.591 74.8058 163.332C74.4515 163.072 74.1958 162.729 74.0387 162.302C73.8737 161.882 73.8197 161.398 73.8768 160.85C73.9338 160.302 74.0867 159.836 74.3354 159.451C74.5762 159.073 74.8967 158.794 75.297 158.612C75.6902 158.43 76.1359 158.365 76.6343 158.417ZM76.562 159.111C76.0779 159.06 75.6722 159.191 75.3447 159.502C75.0165 159.821 74.8191 160.3 74.7524 160.941C74.685 161.589 74.7795 162.099 75.0358 162.471C75.2921 162.843 75.6623 163.054 76.1464 163.105C76.6376 163.156 77.047 163.026 77.3744 162.714C77.6947 162.402 77.8886 161.922 77.956 161.274C78.0227 160.634 77.9318 160.124 77.6833 159.746C77.427 159.374 77.0532 159.162 76.562 159.111Z" fill="#020E10"/>
<path d="M71.9974 157.839L71.0329 162.966L70.1993 162.81L70.372 161.892C69.9812 162.459 69.3543 162.694 68.4913 162.598L68.1793 162.572L68.255 161.821L68.805 161.859C69.2983 161.908 69.6967 161.823 70.0002 161.603C70.3024 161.391 70.4965 161.056 70.5825 160.598L71.1322 157.676L71.9974 157.839Z" fill="#020E10"/>
<path d="M64.551 156.011C65.3447 156.229 65.9092 156.633 66.2445 157.222C66.578 157.819 66.6347 158.517 66.4147 159.318C66.2725 159.836 66.0438 160.263 65.7287 160.599C65.4116 160.943 65.0443 161.172 64.6266 161.287C64.2001 161.408 63.7488 161.402 63.2725 161.271C62.5893 161.084 62.1151 160.716 61.85 160.168C61.5829 159.627 61.5547 158.973 61.7652 158.207L61.8534 157.886L65.6424 158.928C65.7722 158.347 65.727 157.863 65.5068 157.476C65.2846 157.096 64.9044 156.832 64.3661 156.684C64.0624 156.601 63.7602 156.566 63.4595 156.58C63.1569 156.6 62.8519 156.684 62.5447 156.829L62.417 156.16C62.7035 156.008 63.0398 155.919 63.426 155.891C63.8102 155.871 64.1852 155.911 64.551 156.011ZM63.4225 160.645C63.8987 160.775 64.3157 160.73 64.6733 160.51C65.0309 160.289 65.3002 159.943 65.4813 159.473L62.4273 158.634C62.3077 159.151 62.3332 159.584 62.5039 159.936C62.6677 160.285 62.9739 160.521 63.4225 160.645Z" fill="#020E10"/>
<path d="M53.7561 151.974C54.2326 152.188 54.5983 152.474 54.8532 152.832C55.1052 153.197 55.2421 153.608 55.264 154.065C55.2765 154.526 55.1696 155.007 54.9435 155.51C54.6029 156.267 54.13 156.769 53.525 157.014C52.917 157.267 52.254 157.231 51.536 156.908C51.2423 156.776 50.9753 156.593 50.7351 156.36C50.4949 156.126 50.3227 155.872 50.2186 155.597L50.7526 155.143C50.8597 155.411 51.0084 155.639 51.1986 155.826C51.3824 156.011 51.5754 156.149 51.7778 156.24C52.2739 156.463 52.7262 156.478 53.1348 156.285C53.5404 156.099 53.8739 155.715 54.1353 155.134C54.3908 154.567 54.4596 154.056 54.3417 153.603C54.2209 153.156 53.9125 152.821 53.4164 152.598C53.2141 152.507 52.9829 152.454 52.7227 152.439C52.4561 152.421 52.1856 152.464 51.9111 152.568L51.8969 151.867C52.1713 151.763 52.4804 151.721 52.824 151.743C53.1582 151.767 53.4689 151.844 53.7561 151.974Z" fill="#020E10"/>
<path d="M50.0194 150.206L47.51 154.781L46.7664 154.373L47.2156 153.554C46.6679 153.972 45.999 154.001 45.2087 153.641L44.9202 153.52L45.2251 152.83L45.7362 153.037C46.1898 153.237 46.595 153.279 46.9518 153.165C47.305 153.056 47.5936 152.798 47.8173 152.39L49.2476 149.783L50.0194 150.206Z" fill="#020E10"/>
<path d="M43.5085 146.157C44.1952 146.61 44.6064 147.17 44.7421 147.834C44.8738 148.505 44.7108 149.186 44.2531 149.879C43.9571 150.327 43.6071 150.662 43.203 150.884C42.795 151.112 42.3746 151.215 41.9417 151.195C41.499 151.177 41.0716 151.032 40.6596 150.76C40.0684 150.369 39.7319 149.872 39.65 149.269C39.5642 148.672 39.7403 148.042 40.1784 147.379L40.3619 147.101L43.6402 149.268C43.9438 148.756 44.0511 148.283 43.962 147.846C43.8689 147.416 43.5895 147.047 43.1237 146.739C42.861 146.565 42.5845 146.438 42.2944 146.358C42.0003 146.284 41.6846 146.268 41.3473 146.311L41.4339 145.635C41.7533 145.58 42.1007 145.6 42.4763 145.693C42.8479 145.793 43.192 145.948 43.5085 146.157ZM40.9968 150.211C41.4088 150.483 41.8191 150.57 42.2276 150.471C42.6362 150.372 42.9995 150.127 43.3175 149.737L40.6751 147.991C40.401 148.444 40.2906 148.865 40.3438 149.251C40.391 149.634 40.6087 149.954 40.9968 150.211Z" fill="#020E10"/>
<path d="M38.6128 142.527C38.8919 142.751 39.1006 143.006 39.2389 143.291C39.367 143.577 39.4192 143.867 39.3953 144.16C39.3715 144.453 39.2655 144.716 39.0774 144.951C38.84 145.247 38.5765 145.421 38.2869 145.473C37.9918 145.521 37.6392 145.44 37.2293 145.23C36.8092 145.022 36.2921 144.671 35.678 144.178L35.41 143.963L35.2017 144.223C34.9241 144.569 34.7974 144.876 34.8216 145.143C34.8358 145.411 34.9992 145.671 35.3119 145.922C35.5575 146.119 35.8239 146.273 36.111 146.384C36.3937 146.501 36.7178 146.577 37.0832 146.613L36.9214 147.295C36.5883 147.276 36.2352 147.19 35.862 147.038C35.4833 146.881 35.1543 146.69 34.8752 146.466C34.3504 146.045 34.0653 145.605 34.0201 145.147C33.9693 144.684 34.1611 144.182 34.5955 143.64L36.6512 141.078L37.2877 141.588L36.7234 142.292C37.0221 142.137 37.339 142.079 37.6743 142.119C38.004 142.154 38.3169 142.29 38.6128 142.527ZM38.0941 142.951C37.7591 142.682 37.3937 142.577 36.9979 142.636C36.5977 142.7 36.2542 142.911 35.9676 143.268L35.7661 143.52L36.0257 143.728C36.4779 144.091 36.8531 144.355 37.1514 144.521C37.4396 144.688 37.6792 144.761 37.8704 144.74C38.0515 144.72 38.2137 144.621 38.3571 144.442C38.5407 144.213 38.6125 143.963 38.5727 143.693C38.5272 143.418 38.3677 143.17 38.0941 142.951Z" fill="#020E10"/>
<path d="M33.1642 137.69C33.611 138.114 33.8355 138.548 33.8374 138.994C33.8344 139.444 33.6213 139.893 33.198 140.34L31.3153 142.328L32.0558 143.029L31.5906 143.52L30.8502 142.819L29.7501 143.98L29.1187 143.382L30.2188 142.221L29.0184 141.084L29.4836 140.593L30.6839 141.73L32.5076 139.804C32.7881 139.508 32.9399 139.223 32.9628 138.949C32.9809 138.68 32.8496 138.413 32.569 138.147C32.4858 138.068 32.3928 138 32.29 137.942C32.1872 137.884 32.0921 137.833 32.0049 137.79L32.3535 137.204C32.4555 137.231 32.5863 137.291 32.7457 137.383C32.9052 137.475 33.0446 137.577 33.1642 137.69Z" fill="#020E10"/>
<path d="M26.1088 139.905L25.3917 140.569L24.6625 139.781L25.3795 139.117L26.1088 139.905ZM30.8188 135.4L26.9893 138.944L26.3986 138.306L30.2281 134.762L30.8188 135.4Z" fill="#020E10"/>
<path d="M26.9993 130.953L24.3081 135.955L23.7206 135.215L25.9587 131.231L21.5576 132.491L21.0035 131.793L26.4919 130.314L26.9993 130.953Z" fill="#020E10"/>
<path d="M22.6533 124.69C23.1037 125.379 23.2593 126.055 23.1203 126.719C22.9753 127.386 22.5553 127.947 21.8603 128.402C21.411 128.695 20.9568 128.864 20.4979 128.908C20.0329 128.955 19.6057 128.884 19.2164 128.693C18.8171 128.501 18.4823 128.198 18.2121 127.785C17.8244 127.192 17.7126 126.602 17.8768 126.016C18.0349 125.434 18.4465 124.925 19.1115 124.491L19.3901 124.309L21.5401 127.598C22.0217 127.249 22.3081 126.856 22.3994 126.42C22.4847 125.988 22.3746 125.539 22.0692 125.071C21.8969 124.808 21.6934 124.582 21.4589 124.393C21.2184 124.208 20.9348 124.069 20.6081 123.974L20.9558 123.388C21.2708 123.464 21.582 123.62 21.8896 123.855C22.1912 124.094 22.4457 124.372 22.6533 124.69ZM18.7396 127.415C19.0098 127.828 19.352 128.07 19.7663 128.142C20.1806 128.213 20.6111 128.132 21.0579 127.9L19.325 125.249C18.8934 125.557 18.6253 125.899 18.5206 126.275C18.412 126.645 18.485 127.025 18.7396 127.415Z" fill="#020E10"/>
<path d="M17.5054 115.37L13.4739 119.211L13.1146 118.372L16.3946 115.367L11.9355 115.618L11.6439 114.937L14.921 111.899L10.4647 112.184L10.1224 111.384L15.6881 111.126L16.0135 111.886L12.8718 114.832L17.1758 114.6L17.5054 115.37Z" fill="#020E10"/>
<path d="M14.1064 105.89C14.2546 106.376 14.277 106.83 14.1733 107.25C14.0697 107.671 13.8564 108.039 13.5336 108.355C13.2018 108.665 12.7724 108.901 12.2452 109.062C11.7181 109.223 11.2336 109.266 10.7917 109.191C10.3409 109.112 9.95514 108.926 9.63433 108.635C9.31351 108.344 9.07897 107.955 8.93071 107.469C8.78454 106.99 8.76328 106.54 8.86692 106.119C8.96848 105.691 9.18514 105.322 9.5169 105.011C9.83972 104.696 10.2647 104.458 10.7919 104.297C11.319 104.136 11.808 104.096 12.2588 104.175C12.7006 104.25 13.083 104.436 13.4059 104.734C13.7267 105.026 13.9602 105.411 14.1064 105.89ZM13.4389 106.094C13.2969 105.628 13.0188 105.305 12.6045 105.125C12.1835 104.946 11.6649 104.951 11.0487 105.139C10.4257 105.329 9.99271 105.615 9.74971 105.996C9.50672 106.376 9.45621 106.8 9.59821 107.265C9.7423 107.738 10.0215 108.064 10.4357 108.245C10.8478 108.418 11.3654 108.41 11.9884 108.22C12.6045 108.032 13.0386 107.75 13.2905 107.374C13.5335 106.993 13.583 106.566 13.4389 106.094Z" fill="#020E10"/>
<path d="M12.8344 101.394L7.73543 102.501L7.55545 101.672L8.46824 101.474C7.79349 101.335 7.33275 100.849 7.08603 100.016L6.98849 99.7189L7.70925 99.4965L7.88838 100.018C8.03515 100.491 8.26876 100.825 8.58923 101.019C8.9027 101.215 9.28676 101.263 9.7414 101.165L12.6476 100.534L12.8344 101.394Z" fill="#020E10"/>
<path d="M11.8351 96.1558L4.33474 97.1735L4.21781 96.3117L8.84568 95.6838L8.84279 95.6625L6.22001 93.5806L6.07131 92.4848L8.91302 94.7429L11.2114 91.5598L11.3601 92.6556L9.28962 95.6019L9.2925 95.6232L11.7181 95.294L11.8351 96.1558Z" fill="#020E10"/>
<path d="M11.1655 89.9641L10.0726 90.0325L10.0042 88.9395L11.0971 88.8711L11.1655 89.9641Z" fill="#020E10"/>
<path d="M11.1239 80.5174L3.57839 79.9205L3.64782 79.0429L10.4227 79.5788L10.7267 75.7365L11.4973 75.7975L11.1239 80.5174Z" fill="#020E10"/>
<path d="M12.3249 71.5594C12.1848 72.3705 11.8376 72.9715 11.2834 73.3624C10.7222 73.7521 10.0325 73.8763 9.21435 73.735C8.68537 73.6436 8.23815 73.4574 7.87267 73.1764C7.50015 72.8941 7.23624 72.5507 7.08095 72.1462C6.91982 71.7334 6.88129 71.2837 6.96536 70.797C7.08597 70.0988 7.40609 69.5911 7.92572 69.2741C8.43829 68.9559 9.08602 68.8644 9.8689 68.9997L10.1969 69.0563L9.528 72.9285C10.1183 73.0014 10.5954 72.9095 10.9593 72.6527C11.3162 72.3948 11.5422 71.9907 11.6372 71.4406C11.6908 71.1303 11.6961 70.8261 11.6532 70.5282C11.6032 70.229 11.4908 69.9336 11.316 69.6419L11.9702 69.4498C12.1486 69.7203 12.2703 70.0464 12.3351 70.428C12.3929 70.8085 12.3894 71.1856 12.3249 71.5594ZM7.60379 70.8855C7.51972 71.3722 7.60496 71.7828 7.85951 72.1173C8.11406 72.4518 8.48392 72.6864 8.96911 72.821L9.50823 69.7C8.98265 69.631 8.55334 69.6985 8.2203 69.9025C7.88848 70.0994 7.68298 70.4271 7.60379 70.8855Z" fill="#020E10"/>
<path d="M13.8013 65.1491C13.647 65.745 13.3754 66.1515 12.9865 66.3688C12.5906 66.5842 12.0947 66.6148 11.4988 66.4606L8.84843 65.7745L8.59284 66.7619L7.93804 66.5924L8.19363 65.605L6.64496 65.2042L6.86289 64.3623L8.41155 64.7631L8.82587 63.1625L9.48067 63.332L9.06635 64.9326L11.6336 65.5972C12.0286 65.6994 12.3515 65.6943 12.6024 65.5818C12.8464 65.4675 13.0168 65.2233 13.1137 64.8491C13.1424 64.7382 13.1572 64.6238 13.1582 64.5057C13.1592 64.3877 13.1575 64.2801 13.1531 64.1828L13.8352 64.2041C13.8603 64.3067 13.8713 64.45 13.868 64.634C13.8648 64.818 13.8425 64.9897 13.8013 65.1491Z" fill="#020E10"/>
<path d="M9.79451 60.0492L9.36406 60.3253C9.25715 60.1242 9.14583 59.9706 9.03011 59.8645C8.90984 59.7494 8.78059 59.6615 8.64236 59.6007L8.48407 60.0798L7.44425 59.7363L7.78777 58.6965L8.52177 58.939C8.80041 59.031 9.04408 59.1605 9.25275 59.3275C9.46143 59.4944 9.64202 59.735 9.79451 60.0492Z" fill="#020E10"/>
<path d="M16.8934 56.3133C16.7378 56.6904 16.5374 57.0258 16.2922 57.3196C16.0471 57.6133 15.7836 57.8297 15.5016 57.9689L15.0424 57.4774C15.3326 57.3184 15.5827 57.1157 15.7927 56.8695C15.9989 56.6139 16.1634 56.3372 16.2863 56.0395C16.442 55.6624 16.4899 55.3492 16.4302 55.1C16.3704 54.8508 16.2215 54.677 15.9833 54.5787C15.798 54.5022 15.6265 54.505 15.4688 54.587C15.3044 54.6663 15.1365 54.8293 14.965 55.076L14.3938 55.8972C13.8765 56.6438 13.2838 56.8792 12.6155 56.6034C12.1789 56.4232 11.8992 56.1065 11.7766 55.6532C11.6567 55.1933 11.7128 54.6822 11.9449 54.1198C12.0814 53.789 12.2641 53.4966 12.4928 53.2426C12.7177 52.9792 12.9703 52.7892 13.2507 52.6726L13.7058 53.1741C13.448 53.2922 13.2195 53.4612 13.0204 53.681C12.8173 53.8914 12.664 54.1224 12.5602 54.3738C12.4073 54.7443 12.364 55.0555 12.4303 55.3074C12.4967 55.5594 12.649 55.7345 12.8872 55.8328C13.2577 55.9857 13.5969 55.8393 13.9048 55.3934L14.4661 54.5681C14.7335 54.1829 15.0148 53.9234 15.31 53.7898C15.5986 53.6534 15.915 53.6562 16.259 53.7982C16.7023 53.9811 16.9806 54.3012 17.0939 54.7583C17.2005 55.2128 17.1337 55.7311 16.8934 56.3133Z" fill="#020E10"/>
<path d="M22.2986 45.8832C21.8712 46.5866 21.328 47.0187 20.6692 47.1795C20.0042 47.3365 19.3169 47.1995 18.6074 46.7683C18.1487 46.4895 17.8007 46.1525 17.5636 45.7571C17.3203 45.358 17.2005 44.9418 17.2042 44.5085C17.2055 44.0654 17.3343 43.6328 17.5908 43.2108C17.9588 42.6052 18.4426 42.2501 19.0422 42.1455C19.6357 42.0371 20.272 42.1892 20.9509 42.6018L21.2353 42.7746L19.1947 46.1327C19.7172 46.4167 20.1948 46.506 20.6275 46.4004C21.0541 46.2911 21.4123 45.9979 21.7023 45.5208C21.8658 45.2517 21.9822 44.9706 22.0513 44.6776C22.1144 44.3809 22.118 44.0648 22.0622 43.7294L22.7413 43.7903C22.8083 44.1074 22.802 44.4554 22.7225 44.8342C22.6369 45.2094 22.4956 45.559 22.2986 45.8832ZM18.1525 43.5269C17.896 43.949 17.8249 44.3623 17.9393 44.7668C18.0536 45.1713 18.3118 45.525 18.714 45.828L20.3588 43.1214C19.895 42.8647 19.4708 42.7702 19.0862 42.838C18.7053 42.8997 18.3941 43.1294 18.1525 43.5269Z" fill="#020E10"/>
<path d="M24.288 42.6494L23.4155 39.3022L20.1738 39.4376L20.7878 38.6098L23.2332 38.5387L22.5978 36.1694L23.2054 35.3502L24.0167 38.4916L27.4731 38.355L26.8591 39.1829L24.2098 39.2765L24.902 41.8216L24.288 42.6494Z" fill="#020E10"/>
<path d="M30.3096 38.0495L24.9983 33.2622L25.5661 32.6322L26.26 33.2576C26.1261 32.925 26.0958 32.5844 26.1689 32.236C26.2416 31.8775 26.4168 31.5441 26.6948 31.2357C27.0063 30.8901 27.3594 30.664 27.7542 30.5574C28.1486 30.4406 28.5595 30.4497 28.9872 30.5846C29.4143 30.7094 29.8352 30.9587 30.2499 31.3325C30.6593 31.7015 30.9508 32.0943 31.1244 32.511C31.2976 32.9176 31.3491 33.3254 31.2791 33.7345C31.2139 34.1382 31.0256 34.5129 30.7141 34.8585C30.4458 35.1562 30.1397 35.3621 29.7959 35.4763C29.4522 35.5904 29.113 35.5979 28.7784 35.4987L30.8918 37.4035L30.3096 38.0495ZM30.0736 34.5268C30.3994 34.1653 30.533 33.7605 30.4743 33.3125C30.4102 32.8598 30.139 32.4177 29.6605 31.9864C29.1766 31.5504 28.7089 31.3263 28.2572 31.3143C27.8056 31.3022 27.4168 31.477 27.0909 31.8385C26.7651 32.2 26.6315 32.6048 26.6902 33.0528C26.749 33.5008 27.0202 33.9428 27.504 34.3789C27.9825 34.8102 28.4503 35.0342 28.9073 35.0511C29.3589 35.0631 29.7477 34.8884 30.0736 34.5268Z" fill="#020E10"/>
<path d="M35.1825 30.4127C34.7968 30.7757 34.3994 30.9383 33.9905 30.9005C33.5818 30.8526 33.1739 30.6124 32.7668 30.1797L28.7643 25.9263L29.3976 25.3303L33.3559 29.5369C33.8808 30.0946 34.3647 30.165 34.8078 29.7481C34.9381 29.6255 35.0407 29.4995 35.1155 29.3701L35.6002 29.9165C35.4729 30.105 35.3337 30.2704 35.1825 30.4127Z" fill="#020E10"/>
<path d="M39.295 26.9362C38.8986 27.2542 38.4859 27.4431 38.0567 27.5029C37.6275 27.5627 37.2066 27.5012 36.7939 27.3185C36.3823 27.1256 36.004 26.8143 35.6592 26.3843C35.3143 25.9544 35.0947 25.5205 35.0002 25.0824C34.9068 24.6343 34.9359 24.2072 35.0874 23.8013C35.2389 23.3953 35.5128 23.0333 35.9092 22.7153C36.3 22.4018 36.71 22.2152 37.1392 22.1554C37.5739 22.0911 37.9971 22.1554 38.4087 22.3482C38.8214 22.531 39.2002 22.8373 39.5451 23.2672C39.8899 23.6971 40.109 24.1361 40.2024 24.5843C40.2969 25.0223 40.2656 25.4466 40.1085 25.857C39.957 26.263 39.6859 26.6227 39.295 26.9362ZM38.8584 26.3919C39.238 26.0873 39.4348 25.7092 39.4488 25.2576C39.4582 24.8004 39.2614 24.3206 38.8583 23.8181C38.4508 23.31 38.0251 23.0138 37.5812 22.9294C37.1373 22.8451 36.7255 22.9552 36.3459 23.2597C35.9606 23.5687 35.761 23.949 35.7471 24.4007C35.7388 24.8478 35.9384 25.3254 36.3459 25.8335C36.749 26.336 37.1719 26.6344 37.6147 26.7288C38.0586 26.8132 38.4731 26.7009 38.8584 26.3919Z" fill="#020E10"/>
<path d="M42.9989 24.0871L40.0793 19.7625L40.7823 19.2879L41.3049 20.0621C41.1838 19.3839 41.4642 18.7758 42.1459 18.2378L42.386 18.0369L42.8599 18.6237L42.4421 18.9835C42.0568 19.2954 41.8335 19.6362 41.7721 20.0058C41.7067 20.3694 41.8042 20.7441 42.0645 21.1297L43.7285 23.5945L42.9989 24.0871Z" fill="#020E10"/>
<path d="M49.5784 20.1503C48.8607 20.5532 48.1754 20.663 47.5225 20.4797C46.866 20.29 46.3346 19.8332 45.9281 19.1093C45.6653 18.6412 45.5277 18.1767 45.5152 17.7158C45.4992 17.2487 45.5991 16.8273 45.815 16.4516C46.0337 16.0662 46.3583 15.7526 46.789 15.5108C47.4068 15.1639 48.0027 15.0921 48.5764 15.2953C49.1467 15.4923 49.6263 15.9371 50.0152 16.6299L50.1782 16.9201L46.7518 18.8438C47.0676 19.3478 47.4399 19.66 47.8687 19.7805C48.2939 19.8947 48.75 19.8151 49.2368 19.5418C49.5114 19.3876 49.7508 19.1999 49.9549 18.9786C50.1554 18.751 50.3138 18.4774 50.4298 18.1578L50.9915 18.5443C50.8942 18.8534 50.7179 19.1535 50.4627 19.4445C50.204 19.7293 49.9092 19.9646 49.5784 20.1503ZM47.1231 16.062C46.6924 16.3038 46.4276 16.629 46.3286 17.0375C46.2297 17.446 46.281 17.881 46.4826 18.3424L49.2443 16.7919C48.9663 16.3405 48.6431 16.05 48.2747 15.9202C47.9126 15.787 47.5287 15.8343 47.1231 16.062Z" fill="#020E10"/>
<path d="M60.0015 15.4602C59.4262 15.6791 58.9375 15.6928 58.5353 15.5012C58.1305 15.3029 57.8187 14.9161 57.5998 14.3408L56.6263 11.782L55.673 12.1447L55.4325 11.5125L56.3858 11.1498L55.8169 9.65466L56.6297 9.34542L57.1986 10.8406L58.7439 10.2526L58.9844 10.8848L57.4391 11.4727L58.3821 13.9513C58.5272 14.3326 58.7182 14.593 58.9551 14.7326C59.1894 14.8655 59.4872 14.8633 59.8485 14.7258C59.9555 14.6851 60.0575 14.631 60.1543 14.5635C60.2512 14.496 60.338 14.4324 60.4148 14.3725L60.792 14.9412C60.7228 15.0211 60.6123 15.113 60.4603 15.2168C60.3083 15.3205 60.1554 15.4017 60.0015 15.4602Z" fill="#020E10"/>
<path d="M63.0176 14.3404L60.9402 7.06204L61.7764 6.82336L62.6575 9.91022C62.7362 9.56024 62.902 9.2673 63.1547 9.03141C63.4123 8.78667 63.727 8.61126 64.0987 8.50518C65.2894 8.16532 66.0733 8.65613 66.4505 9.9776L67.3433 13.1058L66.5071 13.3444L65.629 10.2679C65.4954 9.79988 65.3052 9.48571 65.0585 9.32539C64.8167 9.15622 64.4962 9.12861 64.097 9.24255C63.6359 9.37417 63.3089 9.6238 63.1161 9.99145C62.9282 10.3503 62.902 10.7671 63.0376 11.242L63.8538 14.1017L63.0176 14.3404Z" fill="#020E10"/>
<path d="M72.4276 12.1923C71.6181 12.3418 70.9341 12.2243 70.3754 11.8398C69.8154 11.4483 69.46 10.8443 69.3092 10.0279C69.2117 9.49997 69.2315 9.01593 69.3686 8.57574C69.5043 8.12851 69.7351 7.762 70.0608 7.47621C70.3922 7.18208 70.8007 6.99016 71.2864 6.90046C71.9832 6.77177 72.5703 6.89625 73.0476 7.27391C73.5237 7.64454 73.8339 8.22048 73.9782 9.00175L74.0386 9.32904L70.1745 10.0427C70.3106 10.6217 70.562 11.0375 70.9289 11.29C71.2945 11.5354 71.7518 11.6074 72.3008 11.506C72.6105 11.4488 72.8977 11.3485 73.1623 11.205C73.4256 11.0545 73.6638 10.8467 73.8769 10.5817L74.2837 11.1289C74.0917 11.39 73.828 11.617 73.4924 11.81C73.1555 11.996 72.8006 12.1234 72.4276 12.1923ZM71.4245 7.53003C70.9389 7.61972 70.5832 7.8419 70.3576 8.19655C70.1319 8.55121 70.04 8.97943 70.0817 9.48122L73.1962 8.90598C73.0789 8.38903 72.8669 8.00967 72.5602 7.76789C72.2606 7.52482 71.882 7.44553 71.4245 7.53003Z" fill="#020E10"/>
<path d="M81.6484 11.0518L81.6051 5.83411L82.4532 5.82708L82.4605 6.70742C82.6154 6.39119 82.8317 6.14961 83.1095 5.98268C83.3872 5.80859 83.7121 5.72 84.0843 5.71691C84.9002 5.71014 85.4256 6.06009 85.6605 6.76676C85.8153 6.43622 86.0457 6.17663 86.352 5.98799C86.6581 5.79219 87.0116 5.69263 87.4124 5.6893C88.5719 5.67968 89.1573 6.36197 89.1687 7.73616L89.1957 10.9891L88.3261 10.9964L88.2995 7.78632C88.2955 7.30679 88.2067 6.95679 88.0331 6.73634C87.8666 6.50868 87.5901 6.39645 87.2036 6.39965C86.7813 6.40316 86.4462 6.55625 86.1981 6.85893C85.9501 7.16162 85.8282 7.56346 85.8324 8.06447L85.8569 11.0168L84.9872 11.0241L84.9606 7.81402C84.9566 7.33449 84.8678 6.98449 84.6942 6.76404C84.5277 6.53638 84.2512 6.42415 83.8647 6.42735C83.4353 6.43092 83.0966 6.58404 82.8485 6.88672C82.6077 7.18935 82.4893 7.59116 82.4935 8.09217L82.518 11.0445L81.6484 11.0518Z" fill="#020E10"/>
<path d="M93.0695 11.5642C92.5639 11.5134 92.137 11.3589 91.7889 11.1009C91.4408 10.8429 91.1835 10.5041 91.0171 10.0845C90.8585 9.65853 90.8068 9.17135 90.862 8.62299C90.9171 8.07463 91.0645 7.61108 91.304 7.23233C91.5514 6.84717 91.8713 6.56284 92.2638 6.37932C92.6564 6.19581 93.1055 6.12948 93.6111 6.18034C94.1096 6.23049 94.5329 6.38457 94.881 6.64259C95.2363 6.90133 95.4932 7.24369 95.6517 7.66968C95.8181 8.08926 95.8738 8.57323 95.8186 9.1216C95.7634 9.66996 95.6122 10.1367 95.3648 10.5219C95.1253 10.9006 94.8057 11.1814 94.4061 11.3642C94.0135 11.5477 93.568 11.6144 93.0695 11.5642ZM93.1393 10.8699C93.6236 10.9186 94.0289 10.7867 94.3553 10.4743C94.6824 10.1547 94.8782 9.67442 94.9426 9.03348C95.0078 8.38542 94.9116 7.87578 94.654 7.50458C94.3964 7.13337 94.0255 6.92341 93.5412 6.87469C93.0498 6.82526 92.641 6.95678 92.3146 7.26924C91.9954 7.58242 91.8031 8.06305 91.7379 8.71111C91.6735 9.35205 91.7661 9.86133 92.0159 10.2389C92.2735 10.6101 92.648 10.8205 93.1393 10.8699Z" fill="#020E10"/>
<path d="M97.7084 12.127L98.6554 6.99586L99.4895 7.14979L99.32 8.06833C99.7088 7.49959 100.335 7.26213 101.198 7.35596L101.51 7.38079L101.437 8.13154L100.887 8.09552C100.394 8.04812 99.9955 8.13478 99.6927 8.35548C99.3913 8.56915 99.1984 8.90474 99.1139 9.36225L98.5742 12.2868L97.7084 12.127Z" fill="#020E10"/>
<path d="M105.161 13.9294C104.367 13.714 103.801 13.3122 103.463 12.7238C103.128 12.1286 103.069 11.4303 103.286 10.629C103.426 10.1109 103.654 9.68302 103.968 9.34543C104.283 9.00094 104.65 8.77031 105.067 8.65354C105.493 8.53174 105.945 8.53545 106.421 8.66467C107.105 8.85007 107.581 9.21627 107.848 9.76326C108.117 10.3034 108.147 10.9568 107.939 11.7236L107.852 12.0448L104.06 11.0167C103.932 11.5976 103.979 12.0812 104.2 12.4675C104.424 12.847 104.805 13.1098 105.344 13.2558C105.648 13.3382 105.95 13.372 106.251 13.3571C106.553 13.3353 106.858 13.251 107.164 13.1043L107.295 13.7736C107.008 13.9259 106.672 14.0165 106.286 14.0454C105.902 14.0673 105.527 14.0286 105.161 13.9294ZM106.274 9.29202C105.797 9.1628 105.38 9.20926 105.023 9.4314C104.666 9.65354 104.398 9.99984 104.219 10.4703L107.276 11.299C107.394 10.7822 107.367 10.3484 107.195 9.99778C107.03 9.649 106.723 9.41375 106.274 9.29202Z" fill="#020E10"/>
<path d="M115.97 17.9309C115.493 17.7182 115.126 17.4332 114.87 17.0761C114.617 16.7125 114.478 16.3021 114.455 15.8449C114.441 15.3842 114.546 14.9021 114.77 14.3987C115.108 13.6404 115.58 13.1373 116.184 12.8894C116.791 12.635 117.454 12.6681 118.173 12.9887C118.467 13.1198 118.735 13.3018 118.976 13.5346C119.217 13.7674 119.39 14.0209 119.495 14.295L118.963 14.7511C118.855 14.4836 118.705 14.2563 118.514 14.0693C118.33 13.8853 118.136 13.748 117.934 13.6577C117.437 13.4362 116.984 13.4226 116.576 13.617C116.171 13.8047 115.839 14.1895 115.58 14.7714C115.326 15.3401 115.259 15.8509 115.379 16.3038C115.501 16.7502 115.811 17.0841 116.307 17.3056C116.51 17.3959 116.742 17.4481 117.002 17.4622C117.268 17.4792 117.539 17.4352 117.813 17.3301L117.83 18.0311C117.555 18.1362 117.247 18.1787 116.903 18.1587C116.569 18.1351 116.258 18.0591 115.97 17.9309Z" fill="#020E10"/>
<path d="M119.713 19.6842L122.206 15.1009L122.951 15.5062L122.505 16.3267C123.051 15.9069 123.72 15.8756 124.512 16.2329L124.8 16.3534L124.498 17.0443L123.986 16.8393C123.532 16.6409 123.126 16.5997 122.77 16.7154C122.417 16.8249 122.13 17.084 121.907 17.4927L120.486 20.105L119.713 19.6842Z" fill="#020E10"/>
<path d="M126.237 23.7107C125.549 23.2592 125.136 22.7015 124.998 22.0375C124.864 21.3675 125.025 20.6854 125.48 19.9911C125.774 19.5422 126.123 19.2061 126.527 18.9827C126.934 18.7534 127.354 18.648 127.787 18.6666C128.23 18.6831 128.657 18.8268 129.07 19.0977C129.663 19.4863 130.001 19.9821 130.085 20.585C130.173 21.1818 129.999 21.8125 129.563 22.4768L129.381 22.7551L126.095 20.5999C125.793 21.1124 125.687 21.5866 125.778 22.0227C125.873 22.4528 126.153 22.8209 126.62 23.1271C126.883 23.2998 127.16 23.4258 127.451 23.505C127.745 23.5783 128.061 23.5928 128.398 23.5486L128.314 24.2252C127.995 24.2811 127.647 24.2629 127.271 24.1704C126.899 24.072 126.555 23.9187 126.237 23.7107ZM128.735 19.6481C128.322 19.3773 127.912 19.292 127.503 19.3923C127.095 19.4927 126.733 19.7385 126.416 20.13L129.064 21.8671C129.337 21.4124 129.446 20.9917 129.391 20.605C129.343 20.2223 129.124 19.9033 128.735 19.6481Z" fill="#020E10"/>
<path d="M131.146 27.3248C130.866 27.1018 130.656 26.8479 130.517 26.5632C130.388 26.2773 130.335 25.9879 130.358 25.695C130.38 25.402 130.485 25.138 130.673 24.9029C130.909 24.6062 131.172 24.4312 131.461 24.3781C131.756 24.3294 132.109 24.4091 132.52 24.6173C132.941 24.8243 133.459 25.1731 134.075 25.6636L134.343 25.8777L134.551 25.6173C134.827 25.2702 134.953 24.9631 134.928 24.696C134.913 24.4278 134.748 24.1688 134.435 23.9191C134.189 23.7229 133.922 23.5697 133.634 23.4597C133.351 23.344 133.027 23.2687 132.661 23.2337L132.821 22.5509C133.154 22.5692 133.507 22.654 133.881 22.8052C134.26 22.9609 134.59 23.1502 134.87 23.3732C135.396 23.7924 135.682 24.2311 135.729 24.6893C135.782 25.152 135.592 25.6548 135.159 26.1979L133.112 28.7676L132.474 28.2592L133.036 27.5538C132.738 27.7098 132.421 27.7686 132.085 27.7302C131.756 27.6963 131.442 27.5611 131.146 27.3248ZM131.663 26.8994C131.999 27.167 132.365 27.2708 132.76 27.2107C133.16 27.145 133.503 26.933 133.788 26.5747L133.989 26.3228L133.729 26.1154C133.275 25.7542 132.899 25.4912 132.6 25.3264C132.311 25.1604 132.072 25.0883 131.88 25.1099C131.699 25.1304 131.538 25.2303 131.395 25.4094C131.212 25.6389 131.141 25.8889 131.182 26.1594C131.228 26.4342 131.389 26.6809 131.663 26.8994Z" fill="#020E10"/>
<path d="M136.611 32.1419C136.162 31.7201 135.936 31.2865 135.933 30.841C135.934 30.3903 136.146 29.9408 136.568 29.4925L138.444 27.4984L137.701 26.7995L138.164 26.3069L138.907 27.0057L140.003 25.8406L140.637 26.4364L139.54 27.6016L140.745 28.7345L140.281 29.2271L139.077 28.0943L137.26 30.0258C136.98 30.3229 136.83 30.6086 136.808 30.8827C136.791 31.1516 136.923 31.4184 137.204 31.6832C137.288 31.7617 137.381 31.8298 137.484 31.8874C137.587 31.945 137.682 31.9952 137.77 32.0381L137.423 32.626C137.321 32.5987 137.19 32.5394 137.03 32.4481C136.87 32.3568 136.731 32.2547 136.611 32.1419Z" fill="#020E10"/>
<path d="M143.658 29.9038L144.373 29.2378L145.105 30.0232L144.39 30.6893L143.658 29.9038ZM138.964 34.4252L142.781 30.868L143.374 31.5042L139.557 35.0615L138.964 34.4252Z" fill="#020E10"/>
<path d="M142.799 38.8587L145.473 33.8476L146.063 34.5855L143.838 38.5773L148.235 37.3024L148.791 37.9984L143.308 39.496L142.799 38.8587Z" fill="#020E10"/>
<path d="M147.166 45.1063C146.714 44.4189 146.556 43.743 146.692 43.0788C146.835 42.4106 147.253 41.8482 147.946 41.3915C148.395 41.0962 148.848 40.9261 149.307 40.881C149.772 40.832 150.199 40.9019 150.589 41.0907C150.989 41.2815 151.325 41.5832 151.597 41.9957C151.987 42.5874 152.1 43.1767 151.938 43.7634C151.782 44.3461 151.372 44.856 150.709 45.293L150.431 45.476L148.27 42.1943C147.789 42.545 147.504 42.9384 147.414 43.3747C147.33 43.807 147.442 44.2562 147.749 44.7225C147.922 44.9855 148.126 45.211 148.362 45.3989C148.603 45.5829 148.887 45.7215 149.214 45.8146L148.868 46.4023C148.553 46.3271 148.241 46.1724 147.933 45.9384C147.63 45.7005 147.375 45.4231 147.166 45.1063ZM151.071 42.3679C150.799 41.9554 150.456 41.7143 150.041 41.6445C149.627 41.5746 149.197 41.6566 148.751 41.8903L150.493 44.5354C150.923 44.2262 151.19 43.8832 151.293 43.5066C151.401 43.136 151.326 42.7564 151.071 42.3679Z" fill="#020E10"/>
<path d="M152.346 54.4086L156.364 50.5544L156.726 51.392L153.457 54.4079L157.915 54.1415L158.209 54.8215L154.942 57.8712L159.398 57.571L159.743 58.3693L154.178 58.6462L153.85 57.8873L156.982 54.9311L152.678 55.1773L152.346 54.4086Z" fill="#020E10"/>
<path d="M155.778 63.8771C155.628 63.3916 155.604 62.9382 155.706 62.5172C155.808 62.0961 156.02 61.7272 156.342 61.4107C156.673 61.0988 157.101 60.8616 157.628 60.699C158.154 60.5364 158.639 60.4917 159.081 60.5649C159.532 60.6429 159.918 60.827 160.24 61.1171C160.562 61.4073 160.798 61.7951 160.948 62.2807C161.096 62.7594 161.118 63.2093 161.016 63.6304C160.916 64.0583 160.701 64.4282 160.37 64.7401C160.048 65.0567 159.624 65.2963 159.098 65.4589C158.571 65.6215 158.082 65.6638 157.631 65.5858C157.189 65.5126 156.806 65.3275 156.482 65.0305C156.16 64.7403 155.925 64.3559 155.778 63.8771ZM156.444 63.6712C156.588 64.1363 156.867 64.4583 157.282 64.6374C157.704 64.8143 158.222 64.8077 158.838 64.6177C159.46 64.4255 159.892 64.1386 160.134 63.7568C160.376 63.375 160.425 62.9516 160.281 62.4866C160.135 62.0147 159.855 61.6892 159.44 61.5102C159.027 61.338 158.51 61.348 157.888 61.5402C157.272 61.7302 156.839 62.0138 156.588 62.3908C156.347 62.7725 156.299 63.1994 156.444 63.6712Z" fill="#020E10"/>
<path d="M157.065 68.3694L162.16 67.2448L162.343 68.073L161.431 68.2743C162.106 68.4111 162.569 68.8955 162.818 69.7273L162.917 70.0244L162.197 70.2493L162.016 69.7285C161.867 69.2555 161.633 68.9225 161.312 68.7295C160.997 68.5349 160.613 68.4878 160.159 68.5881L157.255 69.2291L157.065 68.3694Z" fill="#020E10"/>
<path d="M158.083 73.6035L165.579 72.56L165.699 73.4213L161.074 74.0652L161.076 74.0864L163.706 76.1593L163.859 77.2546L161.009 75.0063L158.722 78.1972L158.569 77.102L160.63 74.1486L160.627 74.1273L158.202 74.4648L158.083 73.6035Z" fill="#020E10"/>
<path d="M158.773 79.7927L159.866 79.7206L159.938 80.8133L158.845 80.8855L158.773 79.7927Z" fill="#020E10"/>
<path d="M119.5 84.6064L50.3936 84.6064M95.2147 106.565C95.2147 100.987 100.139 84.6064 119.606 84.6064C100.139 84.6064 95.2147 68.2257 95.2147 62.6473" stroke="#020E10" stroke-width="2"/>
</svg>
