<svg width="79" height="93" viewBox="0 0 79 93" fill="none" xmlns="http://www.w3.org/2000/svg">
<path d="M63.1862 25.9956C63.2934 25.6988 63.3829 25.4577 63.4536 25.1983C63.7882 23.8461 63.6983 22.5175 63.3863 21.1547C62.9387 19.2579 62.087 17.5507 61.0334 15.9383C59.2838 13.2816 57.0591 11.0369 54.5429 9.12818C50.8152 6.29222 46.691 4.27364 42.2064 2.9981C39.6863 2.28982 37.151 1.85874 34.5481 1.94556C33.6066 1.9754 32.6847 2.09733 31.7633 2.2562C31.2289 2.35499 30.715 2.61974 30.2007 2.84756C30.0169 2.92365 29.8331 2.99974 29.6836 2.8538C29.5898 2.72566 29.495 2.52366 29.4932 2.37594C29.5074 2.02488 29.7446 1.78194 30.0387 1.66759C30.6264 1.40194 31.1951 1.08113 31.8215 0.962759C32.8346 0.747384 33.8673 0.624111 34.9196 0.59294C36.9125 0.458075 38.9285 0.710751 40.8916 1.16721C47.7441 2.78351 53.7477 5.97981 58.7756 10.9608C61.0186 13.1868 62.859 15.7131 64.0212 18.6723C65.0313 21.2641 65.4505 23.863 64.4125 26.6087C64.6172 26.7355 64.8214 26.8254 65.0074 26.9339C67.4421 28.2157 69.7687 29.7205 71.8591 31.542C73.8934 33.3088 75.6718 35.3003 76.883 37.7234C77.2617 38.4945 77.5669 39.3034 77.7983 40.1132C78.8623 44.1078 77.3531 47.5979 73.7581 49.6358C72.4558 50.3718 71.0578 50.8319 69.6028 51.1634C66.7664 51.7886 63.8863 51.8603 61.0031 51.6735C60.2084 51.6277 59.4316 51.5263 58.6182 51.4622C58.4518 51.4458 58.3041 51.4476 58.0638 51.432C58.1408 51.6896 58.1991 51.929 58.2569 52.1314C58.8528 54.0633 59.1353 56.0544 58.8827 58.0705C58.5806 60.5857 57.5542 62.7588 55.6544 64.4808C54.5216 65.4917 53.2557 66.1903 51.8213 66.6878C49.5592 67.4723 47.2162 67.6667 44.8326 67.5662C44.5185 67.5516 44.2044 67.5369 43.8347 67.5044C43.8378 67.7629 43.8591 68.0028 43.8618 68.2243C43.9629 70.4762 43.5082 72.587 42.1641 74.45C41.2017 75.8097 39.9208 76.7855 38.4338 77.5237C36.5246 78.4701 34.517 78.9191 32.4138 79.0922C29.499 79.349 26.6149 79.0884 23.7633 78.458C23.5413 78.4237 23.3006 78.3712 23.0229 78.3192C23.0448 78.5959 23.0657 78.7988 23.087 79.0386C23.375 81.4729 23.5521 83.9085 23.36 86.3485C23.2812 87.476 23.11 88.5861 22.9017 89.6967C22.7638 90.5109 22.4595 91.3087 21.9879 92.0162C21.6435 92.5559 21.3138 92.7815 20.7982 92.8985C20.7977 92.8616 20.7786 92.8064 20.7786 92.8064C21.3815 92.2636 21.6497 91.5401 21.8437 90.7806C22.1436 89.6135 22.2401 88.4304 22.2628 87.2482C22.337 84.2186 22.0789 81.1931 21.6548 78.1879C21.6356 78.1328 21.6165 78.0776 21.5965 77.9486C21.4296 77.8952 21.2441 77.8236 21.0403 77.7706C16.1099 76.2788 11.6124 73.9323 7.62124 70.6933C5.49529 68.983 3.60648 67.0298 2.24803 64.6454C1.75769 63.8018 1.39638 62.9381 1.14496 61.9993C0.970088 61.2812 0.906002 60.5617 0.98963 59.8405C1.21028 58.2311 2.08322 57.1126 3.59066 56.5403C4.63848 56.1398 5.70944 56.1269 6.81912 56.2613C9.09409 56.5478 11.1177 57.4282 12.998 58.6798C17.1689 61.5104 19.9673 65.3733 21.3369 70.2138C21.8771 72.1279 22.2153 74.1368 22.6451 76.0891C22.6847 76.3103 22.7243 76.5314 22.764 76.7525C22.8383 76.7886 22.8756 76.8251 22.9313 76.8429C26.3208 77.6699 29.7602 78.0347 33.2449 77.5679C35.2178 77.304 37.0767 76.7829 38.7812 75.7097C41.5852 73.9214 42.915 70.8766 42.3926 67.3741C42.2075 67.3394 41.9668 67.2869 41.7448 67.2526C37.3594 66.5484 33.2429 65.1576 29.4292 62.8583C27.8479 61.8986 26.376 60.8268 25.1222 59.4568C24.3924 58.6715 23.7175 57.8302 23.3361 56.8375C23.1078 56.2862 22.9343 55.6789 22.8902 55.0885C22.763 53.7234 23.4513 52.607 24.6997 52.001C25.4161 51.6784 26.1716 51.54 26.9471 51.5306C28.2766 51.5146 29.5727 51.7944 30.8154 52.2411C33.7458 53.2769 36.2593 54.964 38.428 57.1539C40.8583 59.5993 42.6283 62.4219 43.4818 65.8097C43.5009 65.8648 43.52 65.92 43.5583 66.0304C43.7247 66.0468 43.9098 66.0815 44.0762 66.098C46.017 66.2407 47.9739 66.1802 49.8893 65.7508C51.3812 65.4188 52.7596 64.8666 54.0045 63.9651C55.7073 62.7442 56.7768 61.0876 57.2511 59.0689C57.6386 57.513 57.6564 55.9246 57.3418 54.3401C57.1646 53.4374 56.8772 52.5729 56.6449 51.6892C56.5479 51.3026 56.3059 51.1393 55.8987 51.0703C53.1232 50.6237 50.4189 49.9545 47.7675 49.0816C43.7074 47.7825 39.7723 46.131 36.1438 43.8663C34.376 42.7612 32.7359 41.5252 31.3321 39.9723C30.6393 39.1866 30.0382 38.3443 29.7121 37.3326C29.1937 35.6952 29.8601 34.3021 31.4592 33.6733C31.9002 33.4833 32.3789 33.3668 32.8586 33.324C33.6149 33.2595 34.3535 33.2506 35.093 33.3155C36.7384 33.4619 38.3504 33.9041 39.8904 34.4949C45.3075 36.5349 49.9443 39.7107 53.7099 44.1529C55.0964 45.7983 56.2818 47.6122 57.1917 49.5588C57.3243 49.8342 57.456 50.0358 57.8257 50.0683C60.785 50.4388 63.7239 50.6434 66.6934 50.3306C68.3904 50.1623 70.0486 49.8468 71.6295 49.2368C72.5487 48.8933 73.4297 48.4394 74.1981 47.8392C76.1927 46.3192 77.0549 44.3143 76.8587 41.8235C76.7078 40.034 76.0052 38.4358 75.0637 36.9328C73.8022 34.9351 72.1755 33.2741 70.3294 31.8005C68.4272 30.2722 66.3805 29.0042 64.2065 27.9039C64.0948 27.8314 63.9836 27.7958 63.8354 27.7607C63.726 27.8728 63.6161 27.948 63.5436 28.0597C62.5981 29.2899 61.4084 30.1723 59.9556 30.6885C58.9995 31.0324 58.0059 31.3399 57.0106 31.4996C52.7526 32.1605 48.6453 31.5452 44.7089 29.7829C43.799 29.3692 42.9247 28.8441 42.2146 28.1509C41.9903 27.932 41.7661 27.7131 41.5601 27.4755C40.3413 25.9574 40.6536 24.2916 42.2661 23.2379C42.9442 22.805 43.6983 22.5558 44.4721 22.3987C45.6876 22.1255 46.9428 22.0734 48.2175 22.1134C51.4135 22.2041 54.5241 22.8683 57.5466 23.8845C59.2338 24.4366 60.8676 25.1556 62.5188 25.782C62.7591 25.7976 62.9633 25.8875 63.1862 25.9956ZM21.4665 76.3619C21.3281 75.6064 21.2093 74.943 21.0718 74.2614C20.6206 72.0692 20.1142 69.8961 19.1847 67.8574C17.383 63.9455 14.6679 60.8573 10.8939 58.7791C9.49947 58.0018 7.99735 57.4844 6.38934 57.3745C5.61292 57.31 4.85608 57.3376 4.10236 57.6237C3.0363 58.0429 2.38049 58.7895 2.3022 59.9539C2.27196 60.5083 2.27909 61.0992 2.45174 61.6327C2.68268 62.4055 2.98748 63.1775 3.38394 63.8929C4.51635 65.9107 6.08791 67.5908 7.8419 69.0839C11.6671 72.3435 16.0169 74.6917 20.8 76.2222C20.9851 76.2569 21.1884 76.2729 21.4665 76.3619ZM55.8262 49.6492C55.7501 49.4654 55.7305 49.3733 55.674 49.2817C54.918 47.8503 54.0339 46.5128 53.0216 45.2693C50.4351 42.1241 47.3205 39.5947 43.7694 37.6246C41.3712 36.3054 38.8839 35.2643 36.1818 34.7798C35.312 34.6241 34.4065 34.5796 33.5202 34.5903C32.9663 34.597 32.4141 34.7514 31.8811 34.961C31.1091 35.2658 30.8399 35.9154 31.0526 36.7069C31.1496 37.0936 31.3201 37.4424 31.5274 37.7908C32.1121 38.7995 32.9161 39.6208 33.7931 40.3674C35.1181 41.5149 36.5522 42.5133 38.0953 43.3626C43.5062 46.4183 49.3105 48.3982 55.4008 49.5989C55.4934 49.6163 55.6228 49.6332 55.8262 49.6492ZM42.1705 65.807C42.1314 65.6228 42.1296 65.4751 42.0726 65.3465C41.8435 64.7214 41.6695 64.0771 41.3852 63.4711C39.7531 59.8342 37.1523 57.0401 33.8028 54.9383C32.1654 53.9238 30.4573 53.1688 28.5511 52.8409C27.6813 52.6852 26.8128 52.6403 25.9287 52.8357C24.4924 53.1854 23.8949 54.1714 24.2816 55.6072C24.4943 56.3988 24.9459 57.0951 25.4523 57.7353C26.5406 59.1627 27.9573 60.2536 29.4648 61.2142C33.2241 63.6066 37.3412 65.0343 41.7083 65.7572C41.8195 65.7928 41.9672 65.791 42.1705 65.807ZM62.627 27.0919C62.4597 27.0016 62.348 26.9291 62.255 26.8748C58.5602 25.2389 54.7226 24.0109 50.7088 23.4869C49.0256 23.2671 47.3437 23.1582 45.6476 23.4003C44.8917 23.5017 44.1184 23.6957 43.4203 23.9996C41.9137 24.6457 41.7424 25.7559 42.8833 26.9425C43.6126 27.6908 44.4869 28.2159 45.4337 28.6292C48.9425 30.1566 52.5875 30.722 56.3863 30.2699C57.7879 30.1052 59.1316 29.7381 60.3792 29.0582C61.2415 28.5861 61.9912 27.9676 62.627 27.0919Z" fill="#FFFFFC"/>
</svg>
