<svg width="72" height="72" viewBox="0 0 72 72" fill="none" xmlns="http://www.w3.org/2000/svg">
<path d="M51.3687 64.9594L38.9412 28.7757C38.5293 27.6085 38.5979 26.3039 39.2845 25.2054V25.1367H31.5946C32.2812 26.2353 32.4186 27.6085 32.0066 28.8443L19.5105 64.9594C19.3732 65.5087 19.0986 65.9206 18.8239 66.3326L18 67.4998H25.2779C24.866 66.3326 24.7973 65.0967 25.2093 63.9295L31.114 46.9019C35.9514 45.901 41.6018 41.7524 41.6018 41.7524L49.1715 63.9295C49.5148 65.0967 49.5148 66.3326 49.0342 67.4998H52.8792L52.0553 66.3326C51.7806 65.9206 51.506 65.5087 51.3687 64.9594ZM31.6633 45.1854L37.2247 29.1876L41.6018 41.7524C37.5875 44.3929 35.3966 45.2986 31.6633 45.1854Z" fill="#FFFFFC"/>
<path d="M31.1141 4.49988H18.5493C19.2359 5.6671 19.5792 6.97164 19.5792 8.27617V43.0867C19.5792 44.3912 19.2359 45.6958 18.5493 46.863H31.1141C42.7176 46.7943 52.1926 37.3193 52.1926 25.6471C52.1926 14.0436 42.7176 4.56854 31.1141 4.49988ZM31.0454 45.0778H24.7974V6.28504H31.0454C41.7563 6.28504 46.9745 15.0048 46.9745 25.6471C46.9745 36.358 41.7563 45.0778 31.0454 45.0778Z" fill="#FFFFFC"/>
</svg>
