<svg width="48" height="48" viewBox="0 0 48 48" fill="none" xmlns="http://www.w3.org/2000/svg">
<path d="M34.2458 43.3064L25.9608 19.1839C25.6862 18.4058 25.732 17.5361 26.1897 16.8037V16.7579H21.0631C21.5208 17.4903 21.6124 18.4058 21.3377 19.2297L13.007 43.3064C12.9155 43.6726 12.7324 43.9472 12.5493 44.2219L12 45H16.852C16.5773 44.2219 16.5315 43.3979 16.8062 42.6198L20.7427 31.268C23.9676 30.6008 27.7345 27.8351 27.7345 27.8351L32.781 42.6198C33.0099 43.3979 33.0099 44.2219 32.6895 45H35.2528L34.7035 44.2219C34.5204 43.9472 34.3373 43.6726 34.2458 43.3064ZM21.1089 30.1237L24.8165 19.4586L27.7345 27.8351C25.0583 29.5954 23.5977 30.1992 21.1089 30.1237Z" fill="#FFFFFC"/>
<path d="M20.7427 2.99992H12.3662C12.8239 3.77807 13.0528 4.64776 13.0528 5.51745V28.7245C13.0528 29.5941 12.8239 30.4638 12.3662 31.242H20.7427C28.4784 31.1962 34.7951 24.8795 34.7951 17.0981C34.7951 9.3624 28.4784 3.0457 20.7427 2.99992ZM20.6969 30.0519H16.5316V4.19003H20.6969C27.8375 4.19003 31.3163 10.0032 31.3163 17.0981C31.3163 24.2387 27.8375 30.0519 20.6969 30.0519Z" fill="#FFFFFC"/>
</svg>
