<svg width="280" height="32" viewBox="0 0 280 32" fill="none" xmlns="http://www.w3.org/2000/svg">
<path fill-rule="evenodd" clip-rule="evenodd" d="M16.0009 7.4668C13.6834 7.4668 13.3925 7.47693 12.4823 7.51835C11.5739 7.55995 10.9538 7.70378 10.4112 7.9148C9.84993 8.13276 9.37384 8.42432 8.89952 8.89881C8.42485 9.37313 8.13329 9.84922 7.91462 10.4103C7.70307 10.9531 7.55906 11.5733 7.51818 12.4814C7.47746 13.3917 7.4668 13.6827 7.4668 16.0002C7.4668 18.3178 7.47711 18.6077 7.51835 19.5179C7.56013 20.4264 7.70395 21.0465 7.9148 21.5891C8.13294 22.1503 8.4245 22.6264 8.89899 23.1007C9.37313 23.5754 9.84922 23.8677 10.4101 24.0856C10.9531 24.2967 11.5733 24.4405 12.4816 24.4821C13.3918 24.5235 13.6825 24.5336 15.9999 24.5336C18.3176 24.5336 18.6075 24.5235 19.5178 24.4821C20.4262 24.4405 21.047 24.2967 21.59 24.0856C22.151 23.8677 22.6264 23.5754 23.1006 23.1007C23.5752 22.6264 23.8668 22.1503 24.0855 21.5893C24.2952 21.0465 24.4392 20.4262 24.4819 19.5181C24.5228 18.6079 24.5335 18.3178 24.5335 16.0002C24.5335 13.6827 24.5228 13.3918 24.4819 12.4816C24.4392 11.5732 24.2952 10.9531 24.0855 10.4105C23.8668 9.84922 23.5752 9.37313 23.1006 8.89881C22.6259 8.42414 22.1512 8.13258 21.5894 7.9148C21.0454 7.70378 20.425 7.55995 19.5165 7.51835C18.6063 7.47693 18.3165 7.4668 15.9983 7.4668H16.0009ZM15.2354 9.00457C15.4626 9.00421 15.7161 9.00457 16.0009 9.00457C18.2793 9.00457 18.5494 9.01274 19.4491 9.05363C20.2811 9.09168 20.7327 9.2307 21.0335 9.3475C21.4317 9.50217 21.7156 9.68706 22.0141 9.98573C22.3128 10.2844 22.4977 10.5688 22.6527 10.9671C22.7695 11.2675 22.9087 11.7191 22.9466 12.5511C22.9875 13.4507 22.9963 13.7209 22.9963 15.9982C22.9963 18.2756 22.9875 18.5458 22.9466 19.4454C22.9085 20.2774 22.7695 20.729 22.6527 21.0294C22.498 21.4276 22.3128 21.7112 22.0141 22.0097C21.7154 22.3084 21.4319 22.4932 21.0335 22.6479C20.733 22.7652 20.2811 22.9039 19.4491 22.942C18.5495 22.9828 18.2793 22.9917 16.0009 22.9917C13.7223 22.9917 13.4522 22.9828 12.5527 22.942C11.7207 22.9036 11.2691 22.7645 10.9681 22.6477C10.5699 22.4931 10.2855 22.3082 9.98679 22.0095C9.68812 21.7108 9.50323 21.4271 9.3482 21.0287C9.2314 20.7282 9.0922 20.2767 9.05433 19.4447C9.01344 18.5451 9.00527 18.2749 9.00527 15.9961C9.00527 13.7173 9.01344 13.4485 9.05433 12.549C9.09238 11.717 9.2314 11.2654 9.3482 10.9646C9.50287 10.5664 9.68812 10.2819 9.98679 9.98324C10.2855 9.68457 10.5699 9.49968 10.9681 9.34466C11.2689 9.22732 11.7207 9.08866 12.5527 9.05043C13.3399 9.01488 13.645 9.00421 15.2354 9.00243V9.00457ZM20.556 10.4215C19.9906 10.4215 19.532 10.8796 19.532 11.4451C19.532 12.0105 19.9906 12.4691 20.556 12.4691C21.1213 12.4691 21.58 12.0105 21.58 11.4451C21.58 10.8798 21.1213 10.4215 20.556 10.4215ZM16.0009 11.6179C13.5808 11.6179 11.6187 13.5801 11.6187 16.0002C11.6187 18.4203 13.5808 20.3816 16.0009 20.3816C18.4211 20.3816 20.3825 18.4203 20.3825 16.0002C20.3825 13.5801 18.4211 11.6179 16.0009 11.6179ZM16.0009 13.1557C17.5718 13.1557 18.8454 14.4292 18.8454 16.0002C18.8454 17.5711 17.5718 18.8447 16.0009 18.8447C14.4299 18.8447 13.1564 17.5711 13.1564 16.0002C13.1564 14.4292 14.4299 13.1557 16.0009 13.1557Z" stroke="#FFFFFC" stroke-width="0.5"/>
<path fill-rule="evenodd" clip-rule="evenodd" d="M72.5335 15.9883C72.5335 16.5654 72.4747 17.1417 72.3593 17.7034C72.2468 18.2518 72.0801 18.7902 71.8618 19.3049C71.6485 19.8105 71.3839 20.2977 71.0747 20.7521C70.7701 21.2036 70.4192 21.6271 70.0338 22.0133C69.6475 22.3977 69.2225 22.7476 68.7712 23.0535C68.3154 23.3605 67.8275 23.6247 67.3216 23.8391C66.8061 24.0562 66.2665 24.2227 65.7186 24.335C65.1561 24.4507 64.5777 24.5098 63.9997 24.5098C63.4214 24.5098 62.843 24.4507 62.2813 24.335C61.7326 24.2227 61.1929 24.0562 60.6779 23.8391C60.1721 23.6247 59.6837 23.3605 59.2278 23.0535C58.7766 22.7476 58.3516 22.3977 57.9661 22.0133C57.5803 21.6271 57.2294 21.2036 56.9244 20.7521C56.6169 20.2977 56.3518 19.8105 56.1377 19.3049C55.9193 18.7902 55.7522 18.2518 55.6393 17.7034C55.5251 17.1417 55.4668 16.5654 55.4668 15.9883C55.4668 15.4108 55.5251 14.8332 55.6393 14.2727C55.7523 13.7243 55.9193 13.1851 56.1377 12.6712C56.3519 12.1653 56.6169 11.6776 56.9244 11.2232C57.2294 10.7714 57.5803 10.3486 57.9661 9.96207C58.3516 9.57759 58.7766 9.22852 59.2279 8.92312C59.6837 8.61478 60.1721 8.35059 60.6779 8.13587C61.193 7.91822 61.7326 7.75139 62.2814 7.63989C62.8431 7.52506 63.4214 7.4668 63.9998 7.4668C64.5777 7.4668 65.1561 7.52506 65.7186 7.63989C66.2665 7.75142 66.8061 7.91825 67.3216 8.13587C67.8275 8.35056 68.3154 8.61478 68.7713 8.92312C69.2225 9.22852 69.6476 9.57759 70.0338 9.96207C70.4193 10.3486 70.7701 10.7714 71.0747 11.2232C71.3839 11.6776 71.6485 12.1653 71.8618 12.6712C72.0801 13.1851 72.2468 13.7243 72.3593 14.2727C72.4747 14.8332 72.5335 15.4108 72.5335 15.9883ZM60.8904 9.40618C58.8582 10.3645 57.3414 12.2343 56.8685 14.4879C57.0606 14.4895 60.0974 14.5278 63.5963 13.5995C62.335 11.3618 60.9875 9.53562 60.8904 9.40618ZM64.2001 14.7201C60.4479 15.8418 56.8472 15.7611 56.7181 15.7561C56.716 15.8343 56.7122 15.91 56.7122 15.9883C56.7122 17.8577 57.4185 19.562 58.5794 20.8507C58.5769 20.8469 60.5712 17.3139 64.5039 16.0441C64.5989 16.0124 64.6956 15.9841 64.7914 15.9567C64.6085 15.5431 64.4089 15.1287 64.2001 14.7201ZM68.8125 10.5267C67.5295 9.39701 65.8448 8.71176 63.9997 8.71176C63.4076 8.71176 62.833 8.78333 62.2825 8.91564C62.3917 9.06212 63.7605 10.8754 65.0068 13.1605C67.7566 12.1312 68.7945 10.5533 68.8125 10.5267ZM65.2882 17.1625C65.2719 17.1679 65.2557 17.1725 65.2398 17.1783C60.9401 18.6751 59.536 21.6915 59.5208 21.7245C60.7579 22.6852 62.3097 23.2648 63.9998 23.2648C65.009 23.2648 65.9703 23.0596 66.8449 22.6881C66.737 22.0523 66.3136 19.8238 65.2882 17.1625ZM68.072 22.0232C69.7083 20.9206 70.8705 19.1697 71.1946 17.1416C71.0446 17.0934 69.0058 16.4489 66.6536 16.8254C67.6095 19.4485 67.9978 21.5847 68.072 22.0232ZM65.5678 14.2449C65.7369 14.5919 65.9007 14.9451 66.0519 15.3001C66.1057 15.4274 66.1582 15.5522 66.2095 15.677C68.7129 15.3625 71.1793 15.8917 71.2847 15.9133C71.2681 14.1883 70.6501 12.6051 69.6276 11.3656C69.6138 11.3851 68.445 13.0715 65.5678 14.2449Z" stroke="#FFFFFC" stroke-width="0.5"/>
<path fill-rule="evenodd" clip-rule="evenodd" d="M111.521 13.0051L111.554 13.5587L110.995 13.4909C108.958 13.2311 107.178 12.3498 105.668 10.8696L104.929 10.1352L104.739 10.6776C104.336 11.8865 104.593 13.1633 105.433 14.022C105.88 14.4965 105.779 14.5643 105.007 14.2819C104.739 14.1915 104.504 14.1237 104.481 14.1576C104.403 14.2367 104.672 15.2648 104.884 15.6716C105.175 16.2365 105.768 16.7902 106.417 17.1178L106.966 17.3777L106.317 17.389C105.69 17.389 105.668 17.4003 105.735 17.6376C105.959 18.372 106.843 19.1516 107.828 19.4906L108.521 19.7278L107.917 20.0894C107.022 20.6091 105.97 20.9029 104.918 20.9255C104.414 20.9368 104 20.982 104 21.0159C104 21.1289 105.365 21.7616 106.16 22.0102C108.544 22.7446 111.375 22.4282 113.502 21.1741C115.013 20.2815 116.523 18.5076 117.229 16.7902C117.609 15.875 117.99 14.2028 117.99 13.4006C117.99 12.8808 118.023 12.813 118.65 12.1916C119.019 11.83 119.366 11.4346 119.433 11.3216C119.545 11.1069 119.534 11.1069 118.963 11.299C118.012 11.638 117.878 11.5928 118.348 11.0843C118.695 10.7228 119.109 10.0674 119.109 9.87536C119.109 9.84146 118.941 9.89796 118.751 9.99964C118.549 10.1126 118.102 10.2821 117.766 10.3838L117.161 10.5759L116.613 10.203C116.311 9.99964 115.886 9.77367 115.662 9.70588C115.091 9.5477 114.218 9.57029 113.703 9.75107C112.304 10.2595 111.42 11.5702 111.521 13.0051Z" stroke="#FFFFFC" stroke-width="0.5"/>
<path fill-rule="evenodd" clip-rule="evenodd" d="M166.668 10.4995C167.402 10.701 167.981 11.2948 168.177 12.0488C168.533 13.4153 168.533 16.2666 168.533 16.2666C168.533 16.2666 168.533 19.1178 168.177 20.4845C167.981 21.2385 167.402 21.8322 166.668 22.0338C165.337 22.4 160 22.4 160 22.4C160 22.4 154.663 22.4 153.332 22.0338C152.598 21.8322 152.02 21.2385 151.823 20.4845C151.467 19.1178 151.467 16.2666 151.467 16.2666C151.467 16.2666 151.467 13.4153 151.823 12.0488C152.02 11.2948 152.598 10.701 153.332 10.4995C154.663 10.1333 160 10.1333 160 10.1333C160 10.1333 165.337 10.1333 166.668 10.4995ZM158.4 13.8666V19.1999L162.667 16.5333L158.4 13.8666Z" stroke="#FFFFFC" stroke-width="0.5"/>
</svg>
