<svg width="18" height="18" viewBox="0 0 18 18" fill="none" xmlns="http://www.w3.org/2000/svg">
<path opacity="0.8" fill-rule="evenodd" clip-rule="evenodd" d="M17.0301 0.969691C17.2338 1.17342 17.3028 1.47584 17.2077 1.74778L11.9577 16.7478C11.8561 17.038 11.5876 17.2369 11.2803 17.2494C10.9731 17.2619 10.6893 17.0856 10.5644 16.8046L7.68156 10.3182L1.19516 7.43538C0.914145 7.31049 0.737848 7.02671 0.750383 6.71945C0.762918 6.41219 0.961747 6.14371 1.252 6.04213L16.252 0.792127C16.5239 0.696948 16.8264 0.765962 17.0301 0.969691ZM9.14432 9.91612L11.1668 14.4667L14.7062 4.35429L9.14432 9.91612ZM13.6455 3.29362L3.53307 6.83297L8.08366 8.85546L13.6455 3.29362Z" fill="#FFFFFC"/>
</svg>
