<svg width="76" height="52" viewBox="0 0 76 52" fill="none" xmlns="http://www.w3.org/2000/svg">
<path d="M51.4047 3.00529C36.7305 0.518415 20.2046 1.44779 9.20912 9.91429C-2.12188 18.6392 0.0542961 33.51 13.4302 37.5316C15.4258 38.1317 17.3056 38.8259 19.6857 38.9906C19.823 39.0002 23.5415 48.2985 23.8251 48.3385C24.0498 48.3703 32.3754 39.917 32.4886 39.9187C34.3528 39.9457 36.2287 39.7817 38.1025 39.6105C47.4282 38.7586 56.6998 36.2191 64.1757 32.1199C80.6184 23.1039 67.6647 6.21003 54.1684 3.91828M56.9248 4.5966C57.5475 4.19772 58.1355 3.74615 58.7678 3.36245M59.4876 5.56176C60.3546 4.94386 61.21 4.31696 62.0875 3.7148M61.8206 6.78623C62.6872 6.11766 63.5378 5.31605 64.4838 4.76011M64.1581 8.32126C65.0139 7.5768 65.9818 6.76331 66.9825 6.20845M66.6116 10.4263C67.3845 9.69564 68.2639 9.09828 69.1489 8.51196M68.7929 12.9013C69.4487 12.2851 70.1006 11.6786 70.8473 11.1708M70.3789 15.4608C71.0838 14.8054 71.8609 14.1108 72.6964 13.6154M71.5849 18.6394C72.3437 17.9827 73.1685 17.4113 73.9565 16.7913M71.8258 22.4662C72.5914 21.8912 73.3216 21.2489 74.1458 20.7557M13.2239 39.2647C13.7825 38.8084 14.3818 38.3926 14.9837 37.9956M17.2318 40.3991C17.8887 39.9082 18.5749 39.4413 19.2441 38.9666M32.7419 42.3685C33.5691 41.5354 34.3894 40.6961 35.1846 39.8328M31.3911 43.7931C30.7513 44.5266 29.9869 45.1415 29.334 45.8671M28.1228 47.1879C27.0082 48.0067 26.2695 49.262 25.2592 50.1986M36.8233 41.8952C37.9352 41.1144 38.9042 40.1591 40.0411 39.4107M42.2568 41.3646C43.2105 40.4602 44.1126 39.3853 45.1985 38.6358M47.3148 40.3889C48.1475 39.3368 49.1464 38.296 50.2499 37.5153M52.7603 39.2559C53.8353 37.9464 55.0968 36.6164 56.4549 35.5939M58.4439 37.2272C59.8057 35.5513 61.6393 34.0301 63.282 32.6205M64.7428 35.3686C67.5843 31.7244 70.9089 28.4053 73.9712 24.946M69.7629 33.267C71.0285 31.7613 72.3858 30.2925 73.7147 28.8392" stroke="#FFFFFC" stroke-width="2" stroke-miterlimit="1.5" stroke-linecap="round" stroke-linejoin="round"/>
</svg>
